<svg xmlns="http://www.w3.org/2000/svg" width="110" height="231"><rect id="backgroundrect" width="100%" height="100%" x="0" y="0" fill="none" stroke="none"/><g class="currentLayer" style=""><title>Layer 1</title><path d="M106.79770314693434,93.2680605649948 C106.79770314693434,93.2680605649948 106.79770314693434,231.1653988361355 106.79770314693434,231.1653988361355 C106.79770314693434,231.1653988361355 3.8596723079681396,231.1653988361355 3.8596723079681396,231.1653988361355 C3.8596723079681396,231.1653988361355 3.8596723079681396,93.2680605649948 3.8596723079681396,93.2680605649948 C3.8596723079681396,93.2680605649948 0.0000011324882498442435,93.2680605649948 0.0000011324882498442435,93.2680605649948 C0.0000011324882498442435,93.2680605649948 0.0000011324882498442435,85.1793968677521 0.0000011324882498442435,85.1793968677521 C0.0000011324882498442435,85.1793968677521 7.70379161834717,85.1793968677521 7.70379161834717,85.1793968677521 C7.70379161834717,85.1793968677521 47.26135134696964,16.6368436813354 47.26135134696964,16.6368436813354 C47.26135134696964,16.6368436813354 47.26135134696964,6.654627323150629 47.26135134696964,6.654627323150629 C47.26135134696964,6.654627323150629 45.99667960405354,6.654627323150629 45.99667960405354,6.654627323150629 C45.99667960405354,6.654627323150629 45.99667960405354,0.0000023841857901274466 45.99667960405354,0.0000023841857901274466 C45.99667960405354,0.0000023841857901274466 62.50488001108174,0.0000023841857901274466 62.50488001108174,0.0000023841857901274466 C62.50488001108174,0.0000023841857901274466 62.50488001108174,6.654627323150629 62.50488001108174,6.654627323150629 C62.50488001108174,6.654627323150629 61.24008029699324,6.654627323150629 61.24008029699324,6.654627323150629 C61.24008029699324,6.654627323150629 61.24008029699324,16.6365926265717 61.24008029699324,16.6365926265717 C61.24008029699324,16.6365926265717 61.24012070894244,16.6365926265717 61.24012070894244,16.6365926265717 C61.24012070894244,16.6365926265717 102.50844621658334,85.1793968677521 102.50844621658334,85.1793968677521 C102.50844621658334,85.1793968677521 110.49855536222434,85.1793968677521 110.49855536222434,85.1793968677521 C110.49855536222434,85.1793968677521 110.49855536222434,93.2680605649948 110.49855536222434,93.2680605649948 C110.49855536222434,93.2680605649948 106.79770314693434,93.2680605649948 106.79770314693434,93.2680605649948 zM64.93317341804504,194.7056778669355 C64.93317341804504,194.7056778669355 64.93317341804504,183.4363874197005 64.93317341804504,183.4363874197005 C64.93317341804504,180.0081090927125 61.97720098495484,177.1257075071335 57.96817398071294,176.2885932922365 C57.96817398071294,176.2885932922365 57.96817398071294,194.7056778669355 57.96817398071294,194.7056778669355 C57.96817398071294,194.7056778669355 64.93317341804504,194.7056778669355 64.93317341804504,194.7056778669355 zM54.00898838043214,194.7056778669355 C54.00898838043214,194.7056778669355 54.00898838043214,176.1462452411655 54.00898838043214,176.1462452411655 C49.57886213064194,176.7325278520585 46.20230233669284,179.7722989320755 46.20230233669284,183.4363874197005 C46.20230233669284,183.4363874197005 46.20230233669284,194.7056778669355 46.20230233669284,194.7056778669355 C46.20230233669284,194.7056778669355 54.00898838043214,194.7056778669355 54.00898838043214,194.7056778669355 zM8.19821834564209,226.8790013790135 C8.19821834564209,226.8790013790135 42.18787360191344,226.8790013790135 42.18787360191344,226.8790013790135 C42.18787360191344,226.8790013790135 42.18787360191344,181.2117214202885 42.18787360191344,181.2117214202885 C42.18787360191344,175.3779758214955 48.17799538373944,170.6488572359085 55.56705087423324,170.6488572359085 C62.95615351200104,170.6488572359085 68.94626855850224,175.3779758214955 68.94626855850224,181.2117214202885 C68.94626855850224,181.2117214202885 68.94626855850224,226.8790013790135 68.94626855850224,226.8790013790135 C68.94626855850224,226.8790013790135 102.45915710926035,226.8790013790135 102.45915710926035,226.8790013790135 C102.45915710926035,226.8790013790135 102.45915710926035,93.6588830947876 102.45915710926035,93.6588830947876 C102.45915710926035,93.6588830947876 8.19821834564209,93.6588830947876 8.19821834564209,93.6588830947876 C8.19821834564209,93.6588830947876 8.19821834564209,226.8790013790135 8.19821834564209,226.8790013790135 zM66.78681564331055,74.2558088302612 C66.78681564331055,74.2558088302612 66.78681564331055,49.8291705846787 66.78681564331055,49.8291705846787 C66.78681564331055,49.8291705846787 43.03191757202144,49.8291705846787 43.03191757202144,49.8291705846787 C43.03191757202144,49.8291705846787 43.03191757202144,71.4328932762146 43.03191757202144,71.4328932762146 C43.03191757202144,71.4328932762146 43.03191757202144,74.2558088302612 43.03191757202144,74.2558088302612 C43.03191757202144,74.2558088302612 43.03191757202144,85.0728241205215 43.03191757202144,85.0728241205215 C43.03191757202144,85.0728241205215 66.78681564331055,85.0728241205215 66.78681564331055,85.0728241205215 C66.78681564331055,85.0728241205215 66.78681564331055,74.2558088302612 66.78681564331055,74.2558088302612 zM53.25880116224294,60.5383578538895 C53.25880116224294,60.5383578538895 45.49963957071304,60.5383578538895 45.49963957071304,60.5383578538895 C45.49963957071304,60.5383578538895 45.49963957071304,52.77547955513 45.49963957071304,52.77547955513 C45.49963957071304,52.77547955513 53.25880116224294,52.77547955513 53.25880116224294,52.77547955513 C53.25880116224294,52.77547955513 53.25880116224294,60.5383578538895 53.25880116224294,60.5383578538895 zM53.25880116224294,71.4328932762146 C53.25880116224294,71.4328932762146 45.49963957071304,71.4328932762146 45.49963957071304,71.4328932762146 C45.49963957071304,71.4328932762146 45.49963957071304,63.7994616031647 45.49963957071304,63.7994616031647 C45.49963957071304,63.7994616031647 53.25880116224294,63.7994616031647 53.25880116224294,63.7994616031647 C53.25880116224294,63.7994616031647 53.25880116224294,71.4328932762146 53.25880116224294,71.4328932762146 zM53.25880116224294,82.1420247554779 C53.25880116224294,82.1420247554779 45.49963957071304,82.1420247554779 45.49963957071304,82.1420247554779 C45.49963957071304,82.1420247554779 45.49963957071304,74.3791185617447 45.49963957071304,74.3791185617447 C45.49963957071304,74.3791185617447 53.25880116224294,74.3791185617447 53.25880116224294,74.3791185617447 C53.25880116224294,74.3791185617447 53.25880116224294,82.1420247554779 53.25880116224294,82.1420247554779 zM64.27756363153453,60.5383578538895 C64.27756363153453,60.5383578538895 56.51840877532964,60.5383578538895 56.51840877532964,60.5383578538895 C56.51840877532964,60.5383578538895 56.51840877532964,52.77547955513 56.51840877532964,52.77547955513 C56.51840877532964,52.77547955513 64.27756363153453,52.77547955513 64.27756363153453,52.77547955513 C64.27756363153453,52.77547955513 64.27756363153453,60.5383578538895 64.27756363153453,60.5383578538895 zM64.27756363153453,71.4328932762146 C64.27756363153453,71.4328932762146 56.51840877532964,71.4328932762146 56.51840877532964,71.4328932762146 C56.51840877532964,71.4328932762146 56.51840877532964,63.7994616031647 56.51840877532964,63.7994616031647 C56.51840877532964,63.7994616031647 64.27756363153453,63.7994616031647 64.27756363153453,63.7994616031647 C64.27756363153453,63.7994616031647 64.27756363153453,71.4328932762146 64.27756363153453,71.4328932762146 zM64.27756363153453,82.1420247554779 C64.27756363153453,82.1420247554779 56.51840877532964,82.1420247554779 56.51840877532964,82.1420247554779 C56.51840877532964,82.1420247554779 56.51840877532964,74.3791185617447 56.51840877532964,74.3791185617447 C56.51840877532964,74.3791185617447 64.27756363153453,74.3791185617447 64.27756363153453,74.3791185617447 C64.27756363153453,74.3791185617447 64.27756363153453,82.1420247554779 64.27756363153453,82.1420247554779 zM73.55865943431854,138.8421852588655 C73.55865943431854,138.8421852588655 97.31359791755673,138.8421852588655 97.31359791755673,138.8421852588655 C97.31359791755673,138.8421852588655 97.31359791755673,163.2686700820925 97.31359791755673,163.2686700820925 C97.31359791755673,163.2686700820925 73.55865943431854,163.2686700820925 73.55865943431854,163.2686700820925 C73.55865943431854,163.2686700820925 73.55865943431854,138.8421852588655 73.55865943431854,138.8421852588655 zM87.04506307840344,160.5753406286235 C87.04506307840344,160.5753406286235 94.80422466993333,160.5753406286235 94.80422466993333,160.5753406286235 C94.80422466993333,160.5753406286235 94.80422466993333,152.8123786449435 94.80422466993333,152.8123786449435 C94.80422466993333,152.8123786449435 87.04506307840344,152.8123786449435 87.04506307840344,152.8123786449435 C87.04506307840344,152.8123786449435 87.04506307840344,160.5753406286235 87.04506307840344,160.5753406286235 zM87.04506307840344,149.5512609481815 C87.04506307840344,149.5512609481815 94.80422466993333,149.5512609481815 94.80422466993333,149.5512609481815 C94.80422466993333,149.5512609481815 94.80422466993333,141.7883965969085 94.80422466993333,141.7883965969085 C94.80422466993333,141.7883965969085 87.04506307840344,141.7883965969085 87.04506307840344,141.7883965969085 C87.04506307840344,141.7883965969085 87.04506307840344,149.5512609481815 87.04506307840344,149.5512609481815 zM76.02642184495924,160.5753406286235 C76.02642184495924,160.5753406286235 83.78558343648913,160.5753406286235 83.78558343648913,160.5753406286235 C83.78558343648913,160.5753406286235 83.78558343648913,152.8123786449435 83.78558343648913,152.8123786449435 C83.78558343648913,152.8123786449435 76.02642184495924,152.8123786449435 76.02642184495924,152.8123786449435 C76.02642184495924,152.8123786449435 76.02642184495924,160.5753406286235 76.02642184495924,160.5753406286235 zM76.02642184495924,149.5512609481815 C76.02642184495924,149.5512609481815 83.78558343648913,149.5512609481815 83.78558343648913,149.5512609481815 C83.78558343648913,149.5512609481815 83.78558343648913,141.7883965969085 83.78558343648913,141.7883965969085 C83.78558343648913,141.7883965969085 76.02642184495924,141.7883965969085 76.02642184495924,141.7883965969085 C76.02642184495924,141.7883965969085 76.02642184495924,149.5512609481815 76.02642184495924,149.5512609481815 zM73.55865943431854,106.4366639852525 C73.55865943431854,106.4366639852525 97.31359791755673,106.4366639852525 97.31359791755673,106.4366639852525 C97.31359791755673,106.4366639852525 97.31359791755673,130.8632045984265 97.31359791755673,130.8632045984265 C97.31359791755673,130.8632045984265 73.55865943431854,130.8632045984265 73.55865943431854,130.8632045984265 C73.55865943431854,130.8632045984265 73.55865943431854,106.4366639852525 73.55865943431854,106.4366639852525 zM87.04506307840344,128.1697775125505 C87.04506307840344,128.1697775125505 94.80422466993333,128.1697775125505 94.80422466993333,128.1697775125505 C94.80422466993333,128.1697775125505 94.80422466993333,120.4068573713305 94.80422466993333,120.4068573713305 C94.80422466993333,120.4068573713305 87.04506307840344,120.4068573713305 87.04506307840344,120.4068573713305 C87.04506307840344,120.4068573713305 87.04506307840344,128.1697775125505 87.04506307840344,128.1697775125505 zM87.04506307840344,117.1457536220555 C87.04506307840344,117.1457536220555 94.80422466993333,117.1457536220555 94.80422466993333,117.1457536220555 C94.80422466993333,117.1457536220555 94.80422466993333,109.3828892707825 94.80422466993333,109.3828892707825 C94.80422466993333,109.3828892707825 87.04506307840344,109.3828892707825 87.04506307840344,109.3828892707825 C87.04506307840344,109.3828892707825 87.04506307840344,117.1457536220555 87.04506307840344,117.1457536220555 zM76.02642184495924,128.1697775125505 C76.02642184495924,128.1697775125505 83.78558343648913,128.1697775125505 83.78558343648913,128.1697775125505 C83.78558343648913,128.1697775125505 83.78558343648913,120.4068573713305 83.78558343648913,120.4068573713305 C83.78558343648913,120.4068573713305 76.02642184495924,120.4068573713305 76.02642184495924,120.4068573713305 C76.02642184495924,120.4068573713305 76.02642184495924,128.1697775125505 76.02642184495924,128.1697775125505 zM76.02642184495924,117.1457536220555 C76.02642184495924,117.1457536220555 83.78558343648913,117.1457536220555 83.78558343648913,117.1457536220555 C83.78558343648913,117.1457536220555 83.78558343648913,109.3828892707825 83.78558343648913,109.3828892707825 C83.78558343648913,109.3828892707825 76.02642184495924,109.3828892707825 76.02642184495924,109.3828892707825 C76.02642184495924,109.3828892707825 76.02642184495924,117.1457536220555 76.02642184495924,117.1457536220555 zM97.24764561653134,195.8742680549625 C97.24764561653134,195.8742680549625 97.24764561653134,206.6912693977355 97.24764561653134,206.6912693977355 C97.24764561653134,206.6912693977355 73.49274754524234,206.6912693977355 73.49274754524234,206.6912693977355 C73.49274754524234,206.6912693977355 73.49274754524234,195.8742680549625 73.49274754524234,195.8742680549625 C73.49274754524234,195.8742680549625 73.49274754524234,193.0513525009155 73.49274754524234,193.0513525009155 C73.49274754524234,193.0513525009155 73.49274754524234,171.4476716518405 73.49274754524234,171.4476716518405 C73.49274754524234,171.4476716518405 97.24764561653134,171.4476716518405 97.24764561653134,171.4476716518405 C97.24764561653134,171.4476716518405 97.24764561653134,195.8742680549625 97.24764561653134,195.8742680549625 zM83.71963113546374,174.3939387798305 C83.71963113546374,174.3939387798305 75.96046954393384,174.3939387798305 75.96046954393384,174.3939387798305 C75.96046954393384,174.3939387798305 75.96046954393384,182.1568589210515 75.96046954393384,182.1568589210515 C75.96046954393384,182.1568589210515 83.71963113546374,182.1568589210515 83.71963113546374,182.1568589210515 C83.71963113546374,182.1568589210515 83.71963113546374,174.3939387798305 83.71963113546374,174.3939387798305 zM83.71963113546374,185.4179766178135 C83.71963113546374,185.4179766178135 75.96046954393384,185.4179766178135 75.96046954393384,185.4179766178135 C75.96046954393384,185.4179766178135 75.96046954393384,193.0513525009155 75.96046954393384,193.0513525009155 C75.96046954393384,193.0513525009155 83.71963113546374,193.0513525009155 83.71963113546374,193.0513525009155 C83.71963113546374,193.0513525009155 83.71963113546374,185.4179766178135 83.71963113546374,185.4179766178135 zM83.71963113546374,195.9975638389585 C83.71963113546374,195.9975638389585 75.96046954393384,195.9975638389585 75.96046954393384,195.9975638389585 C75.96046954393384,195.9975638389585 75.96046954393384,203.7605397701265 75.96046954393384,203.7605397701265 C75.96046954393384,203.7605397701265 83.71963113546374,203.7605397701265 83.71963113546374,203.7605397701265 C83.71963113546374,203.7605397701265 83.71963113546374,195.9975638389585 83.71963113546374,195.9975638389585 zM94.73840034008023,174.3939387798305 C94.73840034008023,174.3939387798305 86.97923874855044,174.3939387798305 86.97923874855044,174.3939387798305 C86.97923874855044,174.3939387798305 86.97923874855044,182.1568589210515 86.97923874855044,182.1568589210515 C86.97923874855044,182.1568589210515 94.73840034008023,182.1568589210515 94.73840034008023,182.1568589210515 C94.73840034008023,182.1568589210515 94.73840034008023,174.3939387798305 94.73840034008023,174.3939387798305 zM94.73840034008023,185.4179766178135 C94.73840034008023,185.4179766178135 86.97923874855044,185.4179766178135 86.97923874855044,185.4179766178135 C86.97923874855044,185.4179766178135 86.97923874855044,193.0513525009155 86.97923874855044,193.0513525009155 C86.97923874855044,193.0513525009155 94.73840034008023,193.0513525009155 94.73840034008023,193.0513525009155 C94.73840034008023,193.0513525009155 94.73840034008023,185.4179766178135 94.73840034008023,185.4179766178135 zM94.73840034008023,195.9975638389585 C94.73840034008023,195.9975638389585 86.97923874855044,195.9975638389585 86.97923874855044,195.9975638389585 C86.97923874855044,195.9975638389585 86.97923874855044,203.7605397701265 86.97923874855044,203.7605397701265 C86.97923874855044,203.7605397701265 94.73840034008023,203.7605397701265 94.73840034008023,203.7605397701265 C94.73840034008023,203.7605397701265 94.73840034008023,195.9975638389585 94.73840034008023,195.9975638389585 zM43.02832090854644,139.7747142314915 C43.02832090854644,139.7747142314915 66.78321224451064,139.7747142314915 66.78321224451064,139.7747142314915 C66.78321224451064,139.7747142314915 66.78321224451064,164.2013524770735 66.78321224451064,164.2013524770735 C66.78321224451064,164.2013524770735 43.02832090854644,164.2013524770735 43.02832090854644,164.2013524770735 C43.02832090854644,164.2013524770735 43.02832090854644,139.7747142314915 43.02832090854644,139.7747142314915 zM56.51471781730654,161.5079253911975 C56.51471781730654,161.5079253911975 64.27383899688724,161.5079253911975 64.27383899688724,161.5079253911975 C64.27383899688724,161.5079253911975 64.27383899688724,153.7449494600295 64.27383899688724,153.7449494600295 C64.27383899688724,153.7449494600295 56.51471781730654,153.7449494600295 56.51471781730654,153.7449494600295 C56.51471781730654,153.7449494600295 56.51471781730654,161.5079253911975 56.51471781730654,161.5079253911975 zM56.51471781730654,150.4839433431625 C56.51471781730654,150.4839433431625 64.27383899688724,150.4839433431625 64.27383899688724,150.4839433431625 C64.27383899688724,150.4839433431625 64.27383899688724,142.7209813594815 64.27383899688724,142.7209813594815 C64.27383899688724,142.7209813594815 56.51471781730654,142.7209813594815 56.51471781730654,142.7209813594815 C56.51471781730654,142.7209813594815 56.51471781730654,150.4839433431625 56.51471781730654,150.4839433431625 zM45.49603617191314,161.5079253911975 C45.49603617191314,161.5079253911975 53.25519776344304,161.5079253911975 53.25519776344304,161.5079253911975 C53.25519776344304,161.5079253911975 53.25519776344304,153.7449494600295 53.25519776344304,153.7449494600295 C53.25519776344304,153.7449494600295 45.49603617191314,153.7449494600295 45.49603617191314,153.7449494600295 C45.49603617191314,153.7449494600295 45.49603617191314,161.5079253911975 45.49603617191314,161.5079253911975 zM45.49603617191314,150.4839433431625 C45.49603617191314,150.4839433431625 53.25519776344304,150.4839433431625 53.25519776344304,150.4839433431625 C53.25519776344304,150.4839433431625 53.25519776344304,142.7209813594815 53.25519776344304,142.7209813594815 C53.25519776344304,142.7209813594815 45.49603617191314,142.7209813594815 45.49603617191314,142.7209813594815 C45.49603617191314,142.7209813594815 45.49603617191314,150.4839433431625 45.49603617191314,150.4839433431625 zM43.02832090854644,106.4366639852525 C43.02832090854644,106.4366639852525 66.78321224451064,106.4366639852525 66.78321224451064,106.4366639852525 C66.78321224451064,106.4366639852525 66.78321224451064,130.8632045984265 66.78321224451064,130.8632045984265 C66.78321224451064,130.8632045984265 43.02832090854644,130.8632045984265 43.02832090854644,130.8632045984265 C43.02832090854644,130.8632045984265 43.02832090854644,106.4366639852525 43.02832090854644,106.4366639852525 zM56.51471781730654,128.1697775125505 C56.51471781730654,128.1697775125505 64.27383899688724,128.1697775125505 64.27383899688724,128.1697775125505 C64.27383899688724,128.1697775125505 64.27383899688724,120.4068573713305 64.27383899688724,120.4068573713305 C64.27383899688724,120.4068573713305 56.51471781730654,120.4068573713305 56.51471781730654,120.4068573713305 C56.51471781730654,120.4068573713305 56.51471781730654,128.1697775125505 56.51471781730654,128.1697775125505 zM56.51471781730654,117.1457536220555 C56.51471781730654,117.1457536220555 64.27383899688724,117.1457536220555 64.27383899688724,117.1457536220555 C64.27383899688724,117.1457536220555 64.27383899688724,109.3828892707825 64.27383899688724,109.3828892707825 C64.27383899688724,109.3828892707825 56.51471781730654,109.3828892707825 56.51471781730654,109.3828892707825 C56.51471781730654,109.3828892707825 56.51471781730654,117.1457536220555 56.51471781730654,117.1457536220555 zM45.49603617191314,128.1697775125505 C45.49603617191314,128.1697775125505 53.25519776344304,128.1697775125505 53.25519776344304,128.1697775125505 C53.25519776344304,128.1697775125505 53.25519776344304,120.4068573713305 53.25519776344304,120.4068573713305 C53.25519776344304,120.4068573713305 45.49603617191314,120.4068573713305 45.49603617191314,120.4068573713305 C45.49603617191314,120.4068573713305 45.49603617191314,128.1697775125505 45.49603617191314,128.1697775125505 zM45.49603617191314,117.1457536220555 C45.49603617191314,117.1457536220555 53.25519776344304,117.1457536220555 53.25519776344304,117.1457536220555 C53.25519776344304,117.1457536220555 53.25519776344304,109.3828892707825 53.25519776344304,109.3828892707825 C53.25519776344304,109.3828892707825 45.49603617191314,109.3828892707825 45.49603617191314,109.3828892707825 C45.49603617191314,109.3828892707825 45.49603617191314,117.1457536220555 45.49603617191314,117.1457536220555 zM14.23731940984724,138.8421852588655 C14.23731940984724,138.8421852588655 37.99221074581144,138.8421852588655 37.99221074581144,138.8421852588655 C37.99221074581144,138.8421852588655 37.99221074581144,163.2686700820925 37.99221074581144,163.2686700820925 C37.99221074581144,163.2686700820925 14.23731940984724,163.2686700820925 14.23731940984724,163.2686700820925 C14.23731940984724,163.2686700820925 14.23731940984724,138.8421852588655 14.23731940984724,138.8421852588655 zM27.72376346588134,160.5753406286235 C27.72376346588134,160.5753406286235 35.48287791013714,160.5753406286235 35.48287791013714,160.5753406286235 C35.48287791013714,160.5753406286235 35.48287791013714,152.8123786449435 35.48287791013714,152.8123786449435 C35.48287791013714,152.8123786449435 27.72376346588134,152.8123786449435 27.72376346588134,152.8123786449435 C27.72376346588134,152.8123786449435 27.72376346588134,160.5753406286235 27.72376346588134,160.5753406286235 zM27.72376346588134,149.5512609481815 C27.72376346588134,149.5512609481815 35.48287791013714,149.5512609481815 35.48287791013714,149.5512609481815 C35.48287791013714,149.5512609481815 35.48287791013714,141.7883965969085 35.48287791013714,141.7883965969085 C35.48287791013714,141.7883965969085 27.72376346588134,141.7883965969085 27.72376346588134,141.7883965969085 C27.72376346588134,141.7883965969085 27.72376346588134,149.5512609481815 27.72376346588134,149.5512609481815 zM16.70499426126484,160.5753406286235 C16.70499426126484,160.5753406286235 24.46424341201784,160.5753406286235 24.46424341201784,160.5753406286235 C24.46424341201784,160.5753406286235 24.46424341201784,152.8123786449435 24.46424341201784,152.8123786449435 C24.46424341201784,152.8123786449435 16.70499426126484,152.8123786449435 16.70499426126484,152.8123786449435 C16.70499426126484,152.8123786449435 16.70499426126484,160.5753406286235 16.70499426126484,160.5753406286235 zM16.70499426126484,149.5512609481815 C16.70499426126484,149.5512609481815 24.46424341201784,149.5512609481815 24.46424341201784,149.5512609481815 C24.46424341201784,149.5512609481815 24.46424341201784,141.7883965969085 24.46424341201784,141.7883965969085 C24.46424341201784,141.7883965969085 16.70499426126484,141.7883965969085 16.70499426126484,141.7883965969085 C16.70499426126484,141.7883965969085 16.70499426126484,149.5512609481815 16.70499426126484,149.5512609481815 zM14.23731940984724,106.4366639852525 C14.23731940984724,106.4366639852525 37.99221074581144,106.4366639852525 37.99221074581144,106.4366639852525 C37.99221074581144,106.4366639852525 37.99221074581144,130.8632045984265 37.99221074581144,130.8632045984265 C37.99221074581144,130.8632045984265 14.23731940984724,130.8632045984265 14.23731940984724,130.8632045984265 C14.23731940984724,130.8632045984265 14.23731940984724,106.4366639852525 14.23731940984724,106.4366639852525 zM27.72376346588134,128.1697775125505 C27.72376346588134,128.1697775125505 35.48287791013714,128.1697775125505 35.48287791013714,128.1697775125505 C35.48287791013714,128.1697775125505 35.48287791013714,120.4068573713305 35.48287791013714,120.4068573713305 C35.48287791013714,120.4068573713305 27.72376346588134,120.4068573713305 27.72376346588134,120.4068573713305 C27.72376346588134,120.4068573713305 27.72376346588134,128.1697775125505 27.72376346588134,128.1697775125505 zM27.72376346588134,117.1457536220555 C27.72376346588134,117.1457536220555 35.48287791013714,117.1457536220555 35.48287791013714,117.1457536220555 C35.48287791013714,117.1457536220555 35.48287791013714,109.3828892707825 35.48287791013714,109.3828892707825 C35.48287791013714,109.3828892707825 27.72376346588134,109.3828892707825 27.72376346588134,109.3828892707825 C27.72376346588134,109.3828892707825 27.72376346588134,117.1457536220555 27.72376346588134,117.1457536220555 zM16.70499426126484,128.1697775125505 C16.70499426126484,128.1697775125505 24.46424341201784,128.1697775125505 24.46424341201784,128.1697775125505 C24.46424341201784,128.1697775125505 24.46424341201784,120.4068573713305 24.46424341201784,120.4068573713305 C24.46424341201784,120.4068573713305 16.70499426126484,120.4068573713305 16.70499426126484,120.4068573713305 C16.70499426126484,120.4068573713305 16.70499426126484,128.1697775125505 16.70499426126484,128.1697775125505 zM16.70499426126484,117.1457536220555 C16.70499426126484,117.1457536220555 24.46424341201784,117.1457536220555 24.46424341201784,117.1457536220555 C24.46424341201784,117.1457536220555 24.46424341201784,109.3828892707825 24.46424341201784,109.3828892707825 C24.46424341201784,109.3828892707825 16.70499426126484,109.3828892707825 16.70499426126484,109.3828892707825 C16.70499426126484,109.3828892707825 16.70499426126484,117.1457536220555 16.70499426126484,117.1457536220555 zM37.93217206001284,195.8742680549625 C37.93217206001284,195.8742680549625 37.93217206001284,206.6912693977355 37.93217206001284,206.6912693977355 C37.93217206001284,206.6912693977355 14.17728072404864,206.6912693977355 14.17728072404864,206.6912693977355 C14.17728072404864,206.6912693977355 14.17728072404864,195.8742680549625 14.17728072404864,195.8742680549625 C14.17728072404864,195.8742680549625 14.17728072404864,193.0513525009155 14.17728072404864,193.0513525009155 C14.17728072404864,193.0513525009155 14.17728072404864,171.4476716518405 14.17728072404864,171.4476716518405 C14.17728072404864,171.4476716518405 37.93217206001284,171.4476716518405 37.93217206001284,171.4476716518405 C37.93217206001284,171.4476716518405 37.93217206001284,195.8742680549625 37.93217206001284,195.8742680549625 zM24.40411716699604,174.3939387798305 C24.40411716699604,174.3939387798305 16.645043134689338,174.3939387798305 16.645043134689338,174.3939387798305 C16.645043134689338,174.3939387798305 16.645043134689338,182.1568589210515 16.645043134689338,182.1568589210515 C16.645043134689338,182.1568589210515 24.40411716699604,182.1568589210515 24.40411716699604,182.1568589210515 C24.40411716699604,182.1568589210515 24.40411716699604,174.3939387798305 24.40411716699604,174.3939387798305 zM24.40411716699604,185.4179766178135 C24.40411716699604,185.4179766178135 16.645043134689338,185.4179766178135 16.645043134689338,185.4179766178135 C16.645043134689338,185.4179766178135 16.645043134689338,193.0513525009155 16.645043134689338,193.0513525009155 C16.645043134689338,193.0513525009155 24.40411716699604,193.0513525009155 24.40411716699604,193.0513525009155 C24.40411716699604,193.0513525009155 24.40411716699604,185.4179766178135 24.40411716699604,185.4179766178135 zM24.40411716699604,195.9975638389585 C24.40411716699604,195.9975638389585 16.645043134689338,195.9975638389585 16.645043134689338,195.9975638389585 C16.645043134689338,195.9975638389585 16.645043134689338,203.7605397701265 16.645043134689338,203.7605397701265 C16.645043134689338,203.7605397701265 24.40411716699604,203.7605397701265 24.40411716699604,203.7605397701265 C24.40411716699604,203.7605397701265 24.40411716699604,195.9975638389585 24.40411716699604,195.9975638389585 zM35.42283922433854,174.3939387798305 C35.42283922433854,174.3939387798305 27.663724780082738,174.3939387798305 27.663724780082738,174.3939387798305 C27.663724780082738,174.3939387798305 27.663724780082738,182.1568589210515 27.663724780082738,182.1568589210515 C27.663724780082738,182.1568589210515 35.42283922433854,182.1568589210515 35.42283922433854,182.1568589210515 C35.42283922433854,182.1568589210515 35.42283922433854,174.3939387798305 35.42283922433854,174.3939387798305 zM35.42283922433854,185.4179766178135 C35.42283922433854,185.4179766178135 27.663724780082738,185.4179766178135 27.663724780082738,185.4179766178135 C27.663724780082738,185.4179766178135 27.663724780082738,193.0513525009155 27.663724780082738,193.0513525009155 C27.663724780082738,193.0513525009155 35.42283922433854,193.0513525009155 35.42283922433854,193.0513525009155 C35.42283922433854,193.0513525009155 35.42283922433854,185.4179766178135 35.42283922433854,185.4179766178135 zM35.42283922433854,195.9975638389585 C35.42283922433854,195.9975638389585 27.663724780082738,195.9975638389585 27.663724780082738,195.9975638389585 C27.663724780082738,195.9975638389585 27.663724780082738,203.7605397701265 27.663724780082738,203.7605397701265 C27.663724780082738,203.7605397701265 35.42283922433854,203.7605397701265 35.42283922433854,203.7605397701265 C35.42283922433854,203.7605397701265 35.42283922433854,195.9975638389585 35.42283922433854,195.9975638389585 z" fill-rule="nonzero" id="house-shape-PhotoshopSupply.com" class="selected" fill-opacity="1" fill="#3f51b5"/></g></svg>