<svg xmlns="http://www.w3.org/2000/svg" width="502" height="787" version="1.1"><rect id="backgroundrect" width="100%" height="100%" x="0" y="0" fill="none" stroke="none"/>


<g class="currentLayer" style=""><title>Layer 1</title><g id="#3248a9ff">
</g><g id="#fefffeff" class="" fill-opacity="1" fill="#3f51b5">
<path fill="#3f51b5" opacity="1.00" d="M244.00277524952514,16.026004659752473 C256.3575539994679,15.956530739884002 268.700753762766,16.002846686462988 281.04395352606394,16.014425673107738 C280.99763757948506,20.5997043844267 280.99763757948506,25.184983095745665 280.9860585928403,29.770261807064642 C280.0250027013264,30.52289593897305 279.11026275639165,31.345003990749944 278.26499673132525,32.22500697575056 C277.8018372655355,36.636600887398345 278.1955228114568,41.09451074562514 278.0681539583645,45.517683643917664 C278.20710179810146,48.84085281095945 277.46604665283786,52.53454955063306 279.44605336908916,55.46403317175351 C309.81773533825503,105.89052000961743 340.224154267355,156.29384887419187 370.5147833300077,206.76665165863477 C376.5821723318539,206.74349368534524 382.63798234705547,206.75507267199004 388.70537134890185,206.75507267199004 C388.6822133756124,212.7993037005469 388.67063438896764,218.8319557424589 388.72852932219126,224.88776575766053 C385.8916775942288,224.93408170423947 383.06640485291103,224.957239677529 380.252711098238,225.01513461075268 C380.2990270448171,328.0333787890478 380.252711098238,431.051622967343 380.2758690715276,534.0698671456381 C303.3798187637769,534.1046041055723 226.48376845602616,534.1046041055723 149.58771814827546,534.0698671456381 C149.64561308149916,431.0284649940534 149.5992971349202,327.97548385582405 149.61087612156493,224.93408170423947 C146.70455047373397,224.957239677529 143.80980381254776,224.92250271759474 140.92663613800627,224.91092373094995 C140.9613730979405,218.85511371574842 140.94979411129577,212.81088268719157 140.92663613800627,206.75507267199004 C146.7392874336682,206.75507267199004 152.54035974268538,206.76665165863477 158.35301103834732,206.7319146987005 C187.41626751665694,156.15490103445492 216.67636676792725,105.68209825001202 245.78593919281582,55.128242559055906 C248.05542057518585,49.13032747707807 246.42278345827685,42.42609420977078 246.88594292406663,36.13870446167432 C247.37226036314587,33.023957054237954 244.963831141039,30.7660546585127 244.16488106255156,27.987097863773926 C243.74803754334079,24.015505444626456 244.0375122094594,20.009176065544708 244.00277524952514,16.026004659752473 M237.2869629955731,127.68217287502728 C237.2869629955731,154.03594647846663 237.27538400892837,180.38972008190595 237.2985419822179,206.74349368534524 C255.04912850861172,206.7782306452795 272.7997150350056,206.7319146987005 290.5503015613996,206.76665165863477 C290.6429334545575,180.40129906855068 290.5618805480443,154.03594647846663 290.59661750797846,127.67059388838254 C272.8228730082952,127.70533084831678 255.0607074952565,127.67059388838254 237.2869629955731,127.68217287502728 M159.4298567963086,225.82566367588487 C159.44143578295333,325.32389591417757 159.41827780966383,424.833707139115 159.44143578295333,524.3319393774077 C184.83415349487885,524.3203603907629 210.22687120680436,524.3203603907629 235.61958891872985,524.3319393774077 C235.6080099320851,490.15077080212075 235.59643094544037,455.95802324018916 235.61958891872985,421.7652756782575 C235.5269570255719,415.60525478325326 238.87328416590316,409.87365639410456 243.5048788238011,406.00627485475985 C256.03334237341505,395.6430818077131 276.14604217533696,395.86308255396324 288.2808201790295,406.7589089866682 C292.84294091705897,410.7999753256842 295.4829498720609,416.8094693943068 295.4597918987714,422.9115953560873 C295.4945288587056,456.71065737209756 295.4250549388371,490.53287736139737 295.4945288587056,524.3319393774077 C320.481982038065,524.3319393774077 345.4694352174245,524.2972024174734 370.45688839678394,524.3550973506972 C370.56109927658656,424.84528612575974 370.4684673834287,325.3354749008223 370.5032043433628,225.82566367588487 C300.149281489893,225.81408468924008 229.79535863642315,225.82566367588487 159.4298567963086,225.82566367588487 M244.6627774882756,425.5168673511549 C244.28067092899903,434.40952909431894 244.65119850163086,443.3253488107725 244.52382964853865,452.2295895405813 C250.3133229709111,452.2064315672918 256.1143952799283,452.241168527226 261.9154675889455,452.2295895405813 C261.89230961565596,438.3232265802427 261.99652049545864,424.4168636199041 261.8691516423665,410.5105006595656 C254.16912552361117,412.01576892338244 245.48488554005252,416.89052230081995 244.6627774882756,425.5168673511549 M270.9933931184254,410.85787025890795 C270.70391845230677,424.648443352799 270.87760325197803,438.43901644669023 270.9123402119122,452.241168527226 C276.1228842020474,452.21801055393655 281.3450071788273,452.2295895405813 286.56713015560734,452.21801055393655 C286.3008134627782,443.1516640111014 287.0187106347524,434.03900152168717 286.20818156962025,425.0073919387861 C285.1544937849484,417.33052379332025 277.82499523882495,412.82629798851457 270.9933931184254,410.85787025890795 z" id="svg_1" fill-opacity="1"/>
<path fill="#3f51b5" opacity="1.00" d="M242.8564555716954,134.40956411562405 C248.62279092077836,134.38640614233458 254.400705256506,134.38640614233458 260.167040605589,134.40956411562405 C260.15546161894423,140.17589946470702 260.15546161894423,145.9538138004347 260.167040605589,151.72014914951765 C254.38912626986132,151.69699117622815 248.59963294748889,151.7317281361624 242.82171861176113,151.72014914951765 C242.84487658505066,145.94223481378995 242.83329759840592,140.17589946470702 242.8564555716954,134.40956411562405 z" id="svg_2" fill-opacity="1"/>
<path fill="#3f51b5" opacity="1.00" d="M267.6933819246732,134.39798512897931 C273.4828752470456,134.38640614233458 279.27236856941806,134.37482715568981 285.0618618917905,134.40956411562405 C285.0271249318562,140.17589946470702 285.0271249318562,145.9538138004347 285.0618618917905,151.72014914951765 C279.2839475560628,151.7085701628729 273.50603322033504,151.7085701628729 267.72811888460734,151.7317281361624 C267.7165398979626,145.9538138004347 267.72811888460734,140.17589946470702 267.6933819246732,134.39798512897931 z" id="svg_3" fill-opacity="1"/>
<path fill="#3f51b5" opacity="1.00" d="M242.83329759840592,159.02648972235167 C248.62279092077836,159.00333174906217 254.42386322979553,159.00333174906217 260.21335655216797,159.02648972235167 C260.15546161894423,164.70019317827663 260.1438826322995,170.3854756208464 260.167040605589,176.07075806341612 C254.400705256506,176.0360211034819 248.62279092077836,176.02444211683712 242.8564555716954,176.04760009012662 C242.82171861176113,170.37389663420163 242.84487658505066,164.70019317827663 242.83329759840592,159.02648972235167 z" id="svg_4" fill-opacity="1"/>
<path fill="#3f51b5" opacity="1.00" d="M267.6933819246732,159.02648972235167 C273.4712962604009,159.0149107357069 279.2607895827733,159.00333174906217 285.038703918501,159.00333174906217 C285.0271249318562,164.6886141916319 285.0618618917905,170.37389663420163 285.01554594521144,176.07075806341612 C279.2492105961286,176.0360211034819 273.4828752470456,176.00128414354765 267.7049609113179,176.07075806341612 C267.72811888460734,170.3854756208464 267.7396978712521,164.70019317827663 267.6933819246732,159.02648972235167 z" id="svg_5" fill-opacity="1"/>
<path fill="#3f51b5" opacity="1.00" d="M242.84487658505066,182.76341234407866 C248.62279092077836,182.71709639749966 254.400705256506,182.72867538414442 260.19019857887844,182.7518333574339 C260.1438826322995,188.5065897198721 260.15546161894423,194.27292506895506 260.19019857887844,200.02768143139326 C254.4122842431508,200.0739973779722 248.6343699074231,200.05083940468273 242.8564555716954,200.039260418038 C242.83329759840592,194.2845040555998 242.83329759840592,188.51816870651686 242.84487658505066,182.76341234407866 z" id="svg_6" fill-opacity="1"/>
<path fill="#3f51b5" opacity="1.00" d="M267.6933819246732,182.7518333574339 C273.4712962604009,182.74025437078916 279.2492105961286,182.71709639749966 285.0271249318562,182.74025437078916 C285.05028290514576,188.5065897198721 285.0271249318562,194.27292506895506 285.038703918501,200.039260418038 C279.2607895827733,200.0739973779722 273.4828752470456,200.039260418038 267.7049609113179,200.05083940468273 C267.72811888460734,194.2845040555998 267.7396978712521,188.51816870651686 267.6933819246732,182.7518333574339 z" id="svg_7" fill-opacity="1"/>
<path fill="#3f51b5" opacity="1.00" d="M172.7456914377652,254.54155055485217 C190.49627796415908,254.50681359491784 208.25844347719772,254.48365562162843 226.00903000359165,254.54155055485217 C225.97429304365738,272.75529654703575 225.98587203030212,290.9806215258642 225.99745101694685,309.19436751804795 C208.24686449055298,309.19436751804795 190.49627796415908,309.1712095447585 172.7456914377652,309.20594650469263 C172.7456914377652,290.99220051250893 172.79200738434417,272.7668755336805 172.7456914377652,254.54155055485217 M178.22255212072952,261.11841496906726 C178.19939414744002,266.93106626472917 178.22255212072952,272.7321385737463 178.22255212072952,278.53321088276346 C184.03520341639145,278.53321088276346 189.83627572540863,278.5216318961187 195.64892702107056,278.53321088276346 C195.6373480344258,272.7321385737463 195.6605060077153,266.93106626472917 195.64892702107056,261.129993955712 C189.83627572540863,261.1068359824224 184.03520341639145,261.11841496906726 178.22255212072952,261.11841496906726 M203.10579442028626,261.11841496906726 C203.12895239357573,266.91948727808443 203.1405313802205,272.7205595871016 203.10579442028626,278.5216318961187 C208.93002470259293,278.5563688560529 214.7542549848996,278.53321088276346 220.57848526720628,278.53321088276346 C220.53216932062728,272.7321385737463 220.53216932062728,266.93106626472917 220.5669062805615,261.129993955712 C214.74267599825484,261.11841496906726 208.91844571594817,261.11841496906726 203.10579442028626,261.11841496906726 M178.23413110737425,285.70060361586053 C178.21097313408478,291.5248338981673 178.21097313408478,297.3490641804739 178.23413110737425,303.18487344942537 C184.0236244297467,303.1269785162016 189.81311775211913,303.15013648949105 195.60261107449156,303.1617154761358 C195.6836639810048,297.33748519382914 195.64892702107056,291.5248338981673 195.61419006113633,285.71218260250527 C189.8246967387639,285.73534057579485 184.0236244297467,285.73534057579485 178.23413110737425,285.70060361586053 M203.117373406931,285.7237615891501 C203.12895239357573,291.536412884812 203.12895239357573,297.3490641804739 203.10579442028626,303.1617154761358 C208.91844571594817,303.15013648949105 214.7310970116101,303.15013648949105 220.55532729391678,303.1617154761358 C220.55532729391678,297.3490641804739 220.54374830727204,291.536412884812 220.5669062805615,285.7237615891501 C214.74267599825484,285.73534057579485 208.93002470259293,285.71218260250527 203.117373406931,285.7237615891501 z" id="svg_8" fill-opacity="1"/>
<path fill="#3f51b5" opacity="1.00" d="M237.34485792879684,254.51839258156258 C255.07228648190124,254.51839258156258 272.7997150350056,254.4952346082731 290.52714358811,254.52997156820732 C290.5618805480443,272.75529654703575 290.5618805480443,290.9806215258642 290.51556460146526,309.21752549133737 C272.7997150350056,309.1712095447585 255.08386546854598,309.1712095447585 237.35643691544158,309.20594650469263 C237.2985419822179,290.9806215258642 237.3332789421521,272.75529654703575 237.34485792879684,254.51839258156258 M242.81013962511645,261.1068359824224 C242.7985606384717,266.9079082914397 242.7985606384717,272.70898060045687 242.81013962511645,278.51005290947404 C248.61121193413356,278.5447898694082 254.4122842431508,278.5216318961187 260.21335655216797,278.53321088276346 C260.17861959223376,272.7205595871016 260.19019857887844,266.91948727808443 260.2249355388127,261.11841496906726 C254.4122842431508,261.1068359824224 248.61121193413356,261.129993955712 242.81013962511645,261.1068359824224 M267.68180293802845,261.11841496906726 C267.6702239513837,266.91948727808443 267.68180293802845,272.7205595871016 267.6702239513837,278.5216318961187 C273.4712962604009,278.5447898694082 279.2839475560628,278.53321088276346 285.0850198650799,278.51005290947404 C285.09659885172465,272.70898060045687 285.0618618917905,266.9079082914397 285.09659885172465,261.1068359824224 C279.2839475560628,261.129993955712 273.4828752470456,261.14157294235673 267.68180293802845,261.11841496906726 M242.7985606384717,285.71218260250527 C242.81013962511645,291.536412884812 242.7985606384717,297.3606431671186 242.81013962511645,303.1964524360701 C248.59963294748889,303.1269785162016 254.400705256506,303.1385575028463 260.19019857887844,303.17329446278063 C260.20177756552323,297.3606431671186 260.19019857887844,291.5479918714567 260.20177756552323,285.7237615891501 C254.400705256506,285.7237615891501 248.59963294748889,285.73534057579485 242.7985606384717,285.71218260250527 M267.6702239513837,285.7237615891501 C267.6933819246732,291.536412884812 267.6933819246732,297.3490641804739 267.6933819246732,303.1617154761358 C273.4828752470456,303.1617154761358 279.27236856941806,303.1269785162016 285.0618618917905,303.17329446278063 C285.09659885172465,297.3490641804739 285.0850198650799,291.536412884812 285.0618618917905,285.71218260250527 C279.2607895827733,285.71218260250527 273.4712962604009,285.7237615891501 267.6702239513837,285.7237615891501 z" id="svg_9" fill-opacity="1"/>
<path fill="#3f51b5" opacity="1.00" d="M305.90403785233127,254.54155055485217 C323.55041349892247,254.48365562162843 341.1852101588688,254.51839258156258 358.83158580546,254.51839258156258 C358.86632276539433,272.743717560391 358.86632276539433,290.9806215258642 358.83158580546,309.20594650469263 C341.2083681321584,309.1712095447585 323.57357147221194,309.1827885314032 305.9387748122654,309.20594650469263 C305.8808798790418,290.9806215258642 305.95035379891016,272.75529654703575 305.90403785233127,254.54155055485217 M311.4156354952298,261.1068359824224 C311.39247752194035,266.9079082914397 311.39247752194035,272.7205595871016 311.4156354952298,278.53321088276346 C317.20512881760226,278.53321088276346 323.0062011266194,278.53321088276346 328.80727343563655,278.5216318961187 C328.8188524222813,272.7205595871016 328.83043140892613,266.91948727808443 328.80727343563655,261.129993955712 C323.0177801132641,261.11841496906726 317.21670780424694,261.129993955712 311.4156354952298,261.1068359824224 M335.9978241420232,261.129993955712 C335.9746661687336,266.93106626472917 335.9978241420232,272.7321385737463 335.9630871820889,278.53321088276346 C341.7757384777509,278.5216318961187 347.5768107867681,278.53321088276346 353.38946208243,278.5216318961187 C353.40104106907467,272.7205595871016 353.4126200557194,266.93106626472917 353.40104106907467,261.129993955712 C347.59996876005755,261.11841496906726 341.7988964510404,261.11841496906726 335.9978241420232,261.129993955712 M311.4272144818745,285.70060361586053 C311.3808985352956,291.5248338981673 311.3808985352956,297.3490641804739 311.43879346851924,303.17329446278063 C317.2282867908917,303.15013648949105 323.0177801132641,303.1153995295569 328.80727343563655,303.18487344942537 C328.83043140892613,297.3606431671186 328.8188524222813,291.5479918714567 328.7956944489918,285.7237615891501 C323.0062011266194,285.7237615891501 317.21670780424694,285.73534057579485 311.4272144818745,285.70060361586053 M335.98624515537847,285.70060361586053 C335.9746661687336,291.536412884812 335.9746661687336,297.3606431671186 336.00940312866794,303.18487344942537 C341.8104754376851,303.1269785162016 347.61154774670223,303.1385575028463 353.4126200557194,303.1617154761358 C353.4126200557194,297.3490641804739 353.40104106907467,291.5479918714567 353.40104106907467,285.73534057579485 C347.59996876005755,285.71218260250527 341.78731746439564,285.73534057579485 335.98624515537847,285.70060361586053 z" id="svg_10" fill-opacity="1"/>
<path fill="#3f51b5" opacity="1.00" d="M172.7456914377652,327.1533758040472 C190.49627796415908,327.19969175062624 208.24686449055298,327.11863884411304 226.00903000359165,327.19969175062624 C225.97429304365738,345.4018587561651 225.99745101694685,363.61560474834886 225.99745101694685,381.82935074053256 C208.24686449055298,381.82935074053256 190.49627796415908,381.8640877004667 172.75727042440994,381.806192767243 C172.7456914377652,363.5924467750594 172.79200738434417,345.36712179623095 172.7456914377652,327.1533758040472 M178.22255212072952,333.7881351514861 C178.22255212072952,339.6007864471479 178.21097313408478,345.41343774280983 178.23413110737425,351.22608903847186 C184.03520341639145,351.214510051827 189.83627572540863,351.22608903847186 195.6373480344258,351.22608903847186 C195.67208499436003,345.41343774280983 195.6373480344258,339.6007864471479 195.64892702107056,333.7997141381308 C189.83627572540863,333.77655616484134 184.03520341639145,333.7997141381308 178.22255212072952,333.7881351514861 M203.0942154336415,333.8112931247755 C203.15211036686523,339.61236543379266 203.12895239357573,345.4018587561651 203.10579442028626,351.20293106518227 C208.91844571594817,351.22608903847186 214.74267599825484,351.2376680251166 220.5669062805615,351.19135207853753 C220.53216932062728,345.4018587561651 220.53216932062728,339.61236543379266 220.57848526720628,333.8228721114202 C214.74267599825484,333.7649771781965 208.91844571594817,333.7881351514861 203.0942154336415,333.8112931247755 M178.22255212072952,358.3819027849242 C178.22255212072952,364.18297509394137 178.21097313408478,369.9724684163138 178.22255212072952,375.773540725331 C184.03520341639145,375.8082776852651 189.83627572540863,375.81985667190986 195.64892702107056,375.78511971197565 C195.64892702107056,369.98404740295854 195.67208499436003,364.17139610729663 195.61419006113633,358.37032379827934 C189.81311775211913,358.39348177156893 184.0236244297467,358.3819027849242 178.22255212072952,358.3819027849242 M203.10579442028626,358.3819027849242 C203.12895239357573,364.18297509394137 203.12895239357573,369.9724684163138 203.117373406931,375.773540725331 C208.93002470259293,375.8082776852651 214.74267599825484,375.81985667190986 220.55532729391678,375.8082776852651 C220.53216932062728,369.9956263896032 220.54374830727204,364.18297509394137 220.55532729391678,358.3819027849242 C214.74267599825484,358.39348177156893 208.91844571594817,358.3819027849242 203.10579442028626,358.3819027849242 z" id="svg_11" fill-opacity="1"/>
<path fill="#3f51b5" opacity="1.00" d="M305.9271958256207,327.17653377733666 C323.55041349892247,327.1649547906919 341.1852101588688,327.1881127639814 358.8200068188153,327.1533758040472 C358.8894807386838,345.3787007828757 358.84316479210474,363.6040257617041 358.84316479210474,381.82935074053256 C341.19678914551366,381.82935074053256 323.55041349892247,381.8640877004667 305.90403785233127,381.8177717538877 C305.9387748122654,363.6040257617041 305.90403785233127,345.39027976952036 305.9271958256207,327.17653377733666 M311.4040565085851,333.7881351514861 C311.4040565085851,339.6007864471479 311.39247752194035,345.41343774280983 311.4156354952298,351.22608903847186 C317.20512881760226,351.214510051827 323.0062011266194,351.22608903847186 328.80727343563655,351.22608903847186 C328.83043140892613,345.41343774280983 328.8188524222813,339.6007864471479 328.80727343563655,333.7997141381308 C323.0062011266194,333.7881351514861 317.20512881760226,333.77655616484134 311.4040565085851,333.7881351514861 M335.9746661687336,333.7997141381308 C335.9978241420232,339.6007864471479 335.98624515537847,345.41343774280983 335.9978241420232,351.214510051827 C341.78731746439564,351.214510051827 347.5768107867681,351.22608903847186 353.37788309578525,351.2376680251166 C353.40104106907467,345.41343774280983 353.40104106907467,339.6007864471479 353.40104106907467,333.7881351514861 C347.5883897734128,333.7881351514861 341.7757384777509,333.7881351514861 335.9746661687336,333.7997141381308 M311.4156354952298,358.37032379827934 C311.3808985352956,364.18297509394137 311.39247752194035,369.9956263896032 311.4040565085851,375.8082776852651 C317.20512881760226,375.81985667190986 323.0062011266194,375.78511971197565 328.80727343563655,375.7966986986204 C328.8188524222813,369.9956263896032 328.83043140892613,364.1945540805861 328.80727343563655,358.39348177156893 C323.0062011266194,358.37032379827934 317.20512881760226,358.39348177156893 311.4156354952298,358.37032379827934 M335.9978241420232,358.3819027849242 C335.9630871820889,364.18297509394137 335.98624515537847,369.98404740295854 335.9978241420232,375.7966986986204 C341.7988964510404,375.8082776852651 347.59996876005755,375.81985667190986 353.40104106907467,375.78511971197565 C353.40104106907467,369.98404740295854 353.42419904236414,364.18297509394137 353.37788309578525,358.3819027849242 C347.5883897734128,358.3819027849242 341.7988964510404,358.3819027849242 335.9978241420232,358.3819027849242 z" id="svg_12" fill-opacity="1"/>
<path fill="#3f51b5" opacity="1.00" d="M237.34485792879684,329.21443542681175 C255.07228648190124,329.202856440167 272.7997150350056,329.16811948023286 290.53872257475484,329.2260144134566 C290.53872257475484,347.4397604056402 290.57345953468905,365.6535063978239 290.51556460146526,383.86725239000765 C272.7997150350056,383.8788313766524 255.07228648190124,383.8556734033629 237.34485792879684,383.86725239000765 C237.31012096886263,365.6535063978239 237.3332789421521,347.42818141899545 237.34485792879684,329.21443542681175 M242.81013962511645,335.8028788276717 C242.7985606384717,341.6271091099783 242.7985606384717,347.4397604056402 242.82171861176113,353.2524117013022 C248.61121193413356,353.24083271465736 254.4122842431508,353.2292537280126 260.20177756552323,353.2524117013022 C260.19019857887844,347.4397604056402 260.19019857887844,341.6271091099783 260.21335655216797,335.82603680096116 C254.4122842431508,335.8028788276717 248.61121193413356,335.8491947742506 242.81013962511645,335.8028788276717 M267.68180293802845,335.8144578143164 C267.6702239513837,341.6271091099783 267.6933819246732,347.4397604056402 267.6702239513837,353.2524117013022 C273.4712962604009,353.2292537280126 279.2607895827733,353.2292537280126 285.0618618917905,353.2524117013022 C285.09659885172465,347.4513393922849 285.0850198650799,341.638688096623 285.0618618917905,335.82603680096116 C279.2607895827733,335.8028788276717 273.4712962604009,335.82603680096116 267.68180293802845,335.8144578143164 M242.81013962511645,360.4198044343993 C242.81013962511645,366.22087674341645 242.78698165182692,372.0335280390783 242.78698165182692,377.8461793347402 C248.59963294748889,377.8346003480955 254.4122842431508,377.82302136145074 260.2249355388127,377.8346003480955 C260.17861959223376,372.02194905243357 260.19019857887844,366.22087674341645 260.20177756552323,360.40822544775455 C254.400705256506,360.3966464611097 248.59963294748889,360.40822544775455 242.81013962511645,360.4198044343993 M267.6702239513837,360.4198044343993 C267.6933819246732,366.2092977567717 267.6933819246732,371.99879107914415 267.6702239513837,377.7998633881613 C273.4712962604009,377.85775832138506 279.2839475560628,377.82302136145074 285.09659885172465,377.82302136145074 C285.0850198650799,372.02194905243357 285.07344087843524,366.2092977567717 285.0850198650799,360.40822544775455 C279.2839475560628,360.3966464611097 273.4712962604009,360.3966464611097 267.6702239513837,360.4198044343993 z" id="svg_13" fill-opacity="1"/>
<path fill="#3f51b5" opacity="1.00" d="M172.75727042440994,400.1125706525846 C190.50785695080384,400.14730761251894 208.24686449055298,400.0778336926505 225.98587203030212,400.14730761251894 C225.98587203030212,426.4547652693792 225.99745101694685,452.76222292623964 225.99745101694685,479.06968058309997 C208.24686449055298,479.1044175430342 190.49627796415908,479.1159965296789 172.7456914377652,479.06968058309997 C172.78042839769944,452.7506439395949 172.75727042440994,426.4316072960898 172.75727042440994,400.1125706525846 M178.23413110737425,406.72417202673404 C178.23413110737425,412.53682332239595 178.22255212072952,418.33789563141306 178.21097313408478,424.15054692707497 C184.0236244297467,424.15054692707497 189.84785471205336,424.13896794043023 195.6605060077153,424.15054692707497 C195.64892702107056,418.33789563141306 195.6605060077153,412.5252443357512 195.64892702107056,406.72417202673404 C189.84785471205336,406.72417202673404 184.03520341639145,406.7357510133788 178.23413110737425,406.72417202673404 M202.81631975416764,406.7357510133788 C202.8394777274571,412.5252443357512 202.8626357007466,418.3263166447684 202.81631975416764,424.1158099671408 C208.62897104982954,424.1621259137197 214.44162234549148,424.13896794043023 220.25427364115342,424.1621259137197 C220.23111566786392,418.3494746180578 220.26585262779815,412.53682332239595 220.23111566786392,406.7357510133788 C214.43004335884675,406.70101405344445 208.6173920631848,406.7125930400892 202.81631975416764,406.7357510133788 M178.23413110737425,431.3063606735273 C178.21097313408478,437.11901196918933 178.22255212072952,442.93166326485124 178.21097313408478,448.7443145605131 C184.0236244297467,448.7443145605131 189.83627572540863,448.7443145605131 195.64892702107056,448.7443145605131 C195.6373480344258,442.93166326485124 195.67208499436003,437.11901196918933 195.61419006113633,431.31793966017204 C189.8246967387639,431.36425560675104 184.03520341639145,431.35267662010637 178.23413110737425,431.3063606735273 M202.8394777274571,431.31793966017204 C202.85105671410187,437.13059095583407 202.82789874081237,442.9432422514959 202.82789874081237,448.76747253380256 C208.62897104982954,448.73273557386835 214.44162234549148,448.76747253380256 220.24269465450865,448.7443145605131 C220.24269465450865,442.93166326485124 220.24269465450865,437.11901196918933 220.23111566786392,431.3063606735273 C214.43004335884675,431.3758345933958 208.6405500364743,431.36425560675104 202.8394777274571,431.31793966017204 M178.21097313408478,455.10117822847803 C178.21097313408478,460.91382952413994 178.21097313408478,466.7149018331571 178.23413110737425,472.52755312881914 C184.0236244297467,472.4812371822401 189.81311775211913,472.4928161688848 195.60261107449156,472.52755312881914 C195.64892702107056,466.7149018331571 195.67208499436003,460.9022505374952 195.64892702107056,455.10117822847803 C189.83627572540863,455.0895992418333 184.0236244297467,455.0895992418333 178.21097313408478,455.10117822847803 M202.85105671410187,455.07802025518856 C202.8394777274571,460.89067155085047 202.8394777274571,466.7033228465124 202.81631975416764,472.5159741421744 C208.6173920631848,472.4812371822401 214.41846437220198,472.4928161688848 220.23111566786392,472.5391321154639 C220.26585262779815,466.7149018331571 220.25427364115342,460.9022505374952 220.24269465450865,455.0895992418333 C214.44162234549148,455.0895992418333 208.6405500364743,455.10117822847803 202.85105671410187,455.07802025518856 z" id="svg_14" fill-opacity="1"/>
<path fill="#3f51b5" opacity="1.00" d="M305.69561609272586,400.1125706525846 C323.3998866725408,400.12414963922936 341.11573623900034,400.1125706525846 358.8200068188153,400.1125706525846 C358.86632276539433,426.4431862827345 358.86632276539433,452.7738019128844 358.8200068188153,479.1044175430342 C341.1041572523556,479.0812595697447 323.38830768589594,479.1044175430342 305.6724581194364,479.0812595697447 C305.66087913279154,452.76222292623964 305.6493001461468,426.4431862827345 305.69561609272586,400.1125706525846 M311.1261608291112,406.7357510133788 C311.1261608291112,412.5484023090406 311.1030028558217,418.3494746180578 311.1377398157559,424.1621259137197 C316.9272331381283,424.13896794043023 322.7283054471455,424.15054692707497 328.52937775616266,424.15054692707497 C328.5062197828732,418.33789563141306 328.5177987695179,412.53682332239595 328.52937775616266,406.7357510133788 C322.7283054471455,406.7125930400892 316.9272331381283,406.7125930400892 311.1261608291112,406.7357510133788 M335.69677048925985,406.7357510133788 C335.69677048925985,412.53682332239595 335.69677048925985,418.33789563141306 335.67361251597026,424.13896794043023 C341.59047469143496,424.1621259137197 347.49575788025487,424.1273889537855 353.40104106907467,424.1852838870093 C353.40104106907467,418.36105360470253 353.4126200557194,412.5484023090406 353.38946208243,406.7357510133788 C347.49575788025487,406.72417202673404 341.59047469143496,406.7125930400892 335.69677048925985,406.7357510133788 M311.11458184246646,431.34109763346163 C311.1030028558217,437.1421699424788 311.11458184246646,442.9432422514959 311.1261608291112,448.7558935471578 C316.9272331381283,448.7558935471578 322.7283054471455,448.7211565872237 328.5409567428075,448.7558935471578 C328.52937775616266,442.9432422514959 328.5177987695179,437.1421699424788 328.5409567428075,431.34109763346163 C322.7283054471455,431.34109763346163 316.9272331381283,431.36425560675104 311.11458184246646,431.34109763346163 M335.7083494759046,431.3063606735273 C335.685191502615,437.13059095583407 335.69677048925985,442.9432422514959 335.7083494759046,448.76747253380256 C341.59047469143496,448.7443145605131 347.4725999069653,448.7443145605131 353.3663041091405,448.7558935471578 C353.42419904236414,442.9432422514959 353.40104106907467,437.13059095583407 353.40104106907467,431.3295186468169 C347.49575788025487,431.34109763346163 341.60205367807964,431.36425560675104 335.7083494759046,431.3063606735273 M311.1261608291112,455.10117822847803 C311.091423869177,460.9022505374952 311.1261608291112,466.7033228465124 311.11458184246646,472.5159741421744 C316.91565415148364,472.4928161688848 322.7283054471455,472.50439515552955 328.5409567428075,472.5159741421744 C328.5062197828732,466.7033228465124 328.5062197828732,460.9022505374952 328.5177987695179,455.10117822847803 C322.71672646050075,455.07802025518856 316.9272331381283,455.0895992418333 311.1261608291112,455.10117822847803 M335.67361251597026,455.10117822847803 C335.69677048925985,460.91382952413994 335.69677048925985,466.7149018331571 335.7083494759046,472.52755312881914 C341.60205367807964,472.4812371822401 347.49575788025487,472.4928161688848 353.38946208243,472.5391321154639 C353.435778029009,466.72648081980196 353.4126200557194,460.91382952413994 353.38946208243,455.10117822847803 C347.48417889361,455.0895992418333 341.5788957047902,455.0895992418333 335.67361251597026,455.10117822847803 z" id="svg_15" fill-opacity="1"/>
<path fill="#3f51b5" opacity="1.00" d="M159.0709082103215,567.1394530030294 C165.33513998512848,565.9236594053313 172.37516386513335,567.8689291616483 176.65938892368897,572.7205245657965 C180.05203201059922,576.7847488781019 181.66151115421874,582.087924761395 181.85835392717942,587.3332057114645 C182.22888149981125,594.616388311009 182.12467062000854,602.6174680825277 177.655181775137,608.7659099908873 C170.8583166146718,618.399626879315 154.4740505123578,618.2722580262227 147.80455420498473,608.5574882312818 C142.84874792103392,601.8300969906851 143.18453853373154,593.0416461273237 143.71717191938978,585.1331982489629 C144.4698060512982,576.7500119181676 150.31719430689438,568.3784045740172 159.0709082103215,567.1394530030294 M158.97827631716353,573.739475390534 C155.26142160420042,574.9436900015875 152.99194022183045,578.4752809282346 151.8224625707112,582.0184508415266 C149.96982470755202,588.0974188300177 150.00456166748626,594.7321781774565 151.89193649057967,600.7995671793028 C152.92246630196198,603.740629787068 154.48562949900253,606.7627453013464 157.35721818689925,608.2795925518079 C161.53723236565216,610.5143369742437 167.3498836613141,610.0395985218091 170.6383158684216,606.415375702004 C174.54043436770064,602.2932564564749 175.01517282013518,596.2258674546285 174.9456989002667,590.8416386648222 C174.95727788691147,585.5616207548185 174.1930647683583,579.6216006060644 170.05936653618437,575.8815879198117 C167.16461987499815,573.0910521384283 162.70671001677138,572.651050645928 158.97827631716353,573.739475390534 z" id="svg_16" fill-opacity="1"/>
<path fill="#3f51b5" opacity="1.00" d="M271.9312910366497,571.0878874488874 C277.9639430785619,565.9583963652655 287.122921514555,565.483657912831 294.1397874212704,568.7720901199384 C299.21138357166865,571.2847302218481 301.68928671364415,576.7963278647467 302.54613172535517,582.1226617213293 C300.2882293296299,582.180556654553 298.0419059205494,582.226872601132 295.78400352482424,582.2616095610663 C294.2903142476521,579.2858099933668 293.2366264629804,575.5226393338247 289.90187830929386,574.0868449898763 C285.20080973152744,572.0373643537565 278.83236707691776,572.7321035524412 275.7639356160603,577.2247503706022 C272.1281338096104,582.5163472672506 272.417608475729,589.3942653342291 272.8807679415189,595.5195492692991 C273.20497956757174,601.0543048854871 275.9260414290868,607.3185366602942 281.541849951788,609.2522274299665 C286.18502359633067,610.4217050810857 291.163987853571,609.5069651361509 295.3092650723896,607.191167807202 C295.32084405903447,603.7637877603574 295.32084405903447,600.3595656868025 295.3092650723896,596.9437646266027 C291.73135819916354,596.9090276666685 288.1534513259374,596.932185639958 284.5871234393559,596.885869693379 C284.56396546606646,594.9058629771276 284.5871234393559,592.937435247521 284.65659735922435,590.9690075179144 C290.5618805480443,590.9226915713353 296.4671637368641,590.9574285312697 302.372446925684,590.9690075179144 C302.326130979105,597.0363965197607 302.8124484181843,603.150101468186 302.1871831393681,609.1943324967428 C299.83664885048495,613.0038191028639 295.26294912581074,614.6711931797071 291.05977697376835,615.4701432581945 C284.17027992014516,616.7438317891165 276.16920014862643,615.5627751513525 271.2018148780308,610.2248623081251 C266.0723237944088,604.7595806118055 265.09968891625033,596.8279747601553 265.2617947292767,589.6605820270582 C265.4239005423031,583.0374016662641 266.7439050198041,575.7079031201406 271.9312910366497,571.0878874488874 z" id="svg_17" fill-opacity="1"/>
<path fill="#3f51b5" opacity="1.00" d="M364.0768667555295,568.3089306541486 C371.3947863150083,565.4720789261862 381.2369249630414,566.0626072450682 386.424310979887,572.6163136859938 C388.75168729548085,575.2331646677061 389.42326852087604,578.776334580998 390.4190613723241,582.0416088148161 C388.10326404337513,582.1342407079741 385.7990457010709,582.2384515877767 383.49482735876666,582.3310834809347 C381.96640112166034,579.1121251936956 380.75060752396206,575.0594798680349 377.01059483770945,573.8205282970472 C372.95794951204874,572.4657868596121 367.816879441782,572.604734699349 364.67897406105624,575.8468509598775 C360.8231715083562,579.7837064190908 360.3252750826322,585.6426736613317 360.1747482562505,590.8647966381117 C360.44106494907953,596.5963950272604 361.19369908098804,603.0922065349622 365.6516089392147,607.2027467938467 C370.63057319645503,611.2322341462179 377.9253347826443,610.0048615618749 383.18219471935856,607.1564308472678 C383.2169316792927,603.740629787068 383.2400896525822,600.3364077135129 383.22851066593745,596.932185639958 C379.5463929129086,596.9090276666685 375.87585414652455,596.9437646266027 372.2053153801404,596.8742907067343 C372.1242624736272,594.8942839904829 372.1474204469166,592.937435247521 372.2979472732983,590.9805865045591 C378.22638843540767,590.9458495446249 384.15482959751705,590.9458495446249 390.09484974627117,590.9805865045591 C389.99063886646854,597.0132385464711 390.465377318903,603.0806275483175 389.90958595995534,609.1017006035848 C387.1885240984402,613.4206626220747 381.90850618843655,615.1459316321417 377.0800687575779,615.7248809643789 C370.20215069059947,616.6627788826032 362.3863347053967,614.8448779793783 357.99789876703846,609.1132795902296 C352.5905120039426,602.4090463229223 352.75261781696895,593.2732258602186 353.29683018927204,585.1447772356076 C353.91051648144344,578.278438155274 357.32631754164316,570.9952555557295 364.0768667555295,568.3089306541486 z" id="svg_18" fill-opacity="1"/>
<path fill="#3f51b5" opacity="1.00" d="M87.39698087935074,567.475243615727 C90.23383260731323,567.5099805756613 93.08226332192046,567.3247167893453 95.91911504988298,567.6141914554639 C96.94964486126526,568.6910372134253 97.38964635376556,570.1731475039526 98.00333264593704,571.5047309680982 C102.40334757094007,582.4237153740927 106.52546681646925,593.4469106598898 111.27285134081467,604.2153682395025 C116.37918445114715,592.0458532758756 121.12656897549255,579.7142324992224 126.09395424608809,567.4868226023717 C129.10449077372178,567.4868226023717 132.12660628800018,567.5099805756613 135.13714281563384,567.5562965222402 C135.2297747087918,583.4195082255408 135.1255638289891,599.2827199288412 135.17187977556807,615.1459316321417 C132.72871359352692,615.134352645497 130.2971263981305,615.1227736588522 127.86553920273406,615.1227736588522 C127.6918544030629,603.4048391743704 128.0276450157605,591.7100626631781 128.4444885349713,580.0152861519857 C123.47710326437576,591.6290097566648 118.86866657976731,603.4048391743704 114.13286104206665,615.1227736588522 C112.15285432581527,615.134352645497 110.18442659620862,615.1227736588522 108.20441987995727,615.0996156855626 C103.5959831953488,603.4048391743704 98.9180725908719,591.7332206364675 94.0201612401448,580.1658129783674 C94.70332145218475,591.802694556336 94.69174246554,603.4627341075941 94.65700550560577,615.1227736588522 C92.23699729685408,615.1227736588522 89.81698908810242,615.1227736588522 87.39698087935074,615.1227736588522 C87.35066493277175,599.247982968907 87.33908594612701,583.361613292317 87.39698087935074,567.475243615727 z" id="svg_19" fill-opacity="1"/>
<path fill="#3f51b5" opacity="1.00" d="M190.05627647165878,567.5562965222402 C196.91103656534776,567.5447175355955 203.80053361897095,567.2205059095427 210.63213573937043,567.8689291616483 C216.4100500750981,568.471036467175 222.17638542418106,572.5352607794805 222.8827036095105,578.6258077546163 C224.49218275313007,585.3647779818579 220.53216932062728,591.987958342652 214.6500441050969,595.1490216966673 C218.35531983141524,601.7143071242376 222.11849049095733,608.2680135651632 225.48797560457808,615.0301417656942 C222.83638766293151,615.0996156855626 220.18479972128495,615.1459316321417 217.53321177963835,615.1690896054312 C213.9321469331227,609.0322266837164 211.26898000483138,602.2932564564749 207.0889658260785,596.5385000940366 C203.84684956554992,596.249025427918 200.5931543183766,596.3995522542997 197.35103805784806,596.4342892142339 C197.37419603113753,602.6522050424619 197.37419603113753,608.8816998573346 197.32788008455856,615.0996156855626 C194.89629288916214,615.1111946722075 192.47628468041046,615.134352645497 190.04469748501404,615.1459316321417 C190.0678554583035,599.2827199288412 190.03311849836928,583.4195082255408 190.05627647165878,567.5562965222402 M197.32788008455856,573.4615797110602 C197.37419603113753,579.0426512738271 197.3626170444928,584.6121438499495 197.37419603113753,590.1932154127164 C201.94789575581177,590.1584784527822 206.7879121733151,590.806901704888 211.16476912502867,589.1742645879789 C217.02373636726958,586.9163621922537 217.27847407345396,577.4100141569181 211.61634960417373,574.7931631752058 C207.15843974594696,572.743682539086 202.07526460890395,573.6005275507971 197.32788008455856,573.4615797110602 z" id="svg_20" fill-opacity="1"/>
<path fill="#3f51b5" opacity="1.00" d="M224.65428856615642,567.5099805756613 C236.95117238287548,567.4984015890166 249.2480561995946,567.4984015890166 261.55651900295834,567.5099805756613 C261.57967697624787,569.4784083052679 261.5912559628926,571.4584150215193 261.5912559628926,573.4384217377707 C256.57755474571803,573.4384217377707 251.56385352854358,573.4384217377707 246.5617312980138,573.4500007244154 C246.550152311369,587.3447846981093 246.5617312980138,601.2395686718031 246.550152311369,615.134352645497 C244.24593396906482,615.134352645497 241.95329461340526,615.134352645497 239.66065525774582,615.134352645497 C239.64907627110108,601.2395686718031 239.66065525774582,587.3447846981093 239.66065525774582,573.4500007244154 C234.64695404057125,573.4384217377707 229.64483181004147,573.4384217377707 224.631130592867,573.4384217377707 C224.60797261957748,571.4584150215193 224.61955160622222,569.4784083052679 224.65428856615642,567.5099805756613 z" id="svg_21" fill-opacity="1"/>
<path fill="#3f51b5" opacity="1.00" d="M325.22936656241046,567.2784008427664 C327.383058078333,567.3594537492796 329.53674959425547,567.567875508885 331.6557041502439,568.01945598803 C337.73467213873494,583.6858249183698 343.7094292474232,599.4100887819334 349.68418635611164,615.1111946722075 C347.1136513209782,615.1227736588522 344.55469527248965,615.1227736588522 342.0073182106458,615.0996156855626 C340.6525767732106,611.1048652931257 339.18204546932805,607.1564308472678 337.79256707195856,603.1848384281202 C331.49359833721735,603.4279971476599 325.02094480280505,602.4322042962118 318.8377659345113,603.6595768805547 C317.1588128710232,607.3648526068731 316.0240721798383,611.3017080660863 314.61143580917934,615.1227736588522 C312.0756377339802,615.1227736588522 309.5398396587811,615.1111946722075 307.00404158358197,615.1111946722075 C312.99037767891514,599.1321931024595 319.13881958727467,583.22266545258 325.22936656241046,567.2784008427664 M321.25777414326296,596.8511327334447 C325.9588427210294,596.932185639958 330.6714902854405,596.9090276666685 335.38413784985164,596.9206066533133 C333.1146564674817,590.3900581856772 330.787280151888,583.8826676913305 328.3093770099125,577.4331721302076 C325.8777898145162,583.8826676913305 323.5272555256329,590.3553212257428 321.25777414326296,596.8511327334447 z" id="svg_22" fill-opacity="1"/>
<path fill="#3f51b5" opacity="1.00" d="M399.496986901804,567.5331385489508 C409.60544224266636,567.4868226023717 419.7254765701734,567.4868226023717 429.8455108976803,567.521559562306 C429.91498481754877,569.4784083052679 429.90340583090403,571.4468360348745 429.81077393774615,573.426842751126 C422.04127389912236,573.4731586977049 414.27177386049846,573.4036847778364 406.5022738218747,573.4500007244154 C406.52543179516414,578.139490315537 406.52543179516414,582.8289799066587 406.52543179516414,587.5300484844252 C413.3222969556294,587.5647854443594 420.13074110273936,587.495311524491 426.93918524984934,587.5647854443594 C426.9855011964284,589.5563711472555 427.0086591697178,591.5363778635069 427.02023815636255,593.5395425530477 C420.20021502260784,593.7363853260084 413.36861290220844,593.5974374862715 406.5485897684537,593.6321744462057 C406.49069483523,598.8774553962751 406.52543179516414,604.1227363463446 406.5138528085194,609.368017296414 C414.45703764681446,609.4374912162824 422.40022248510945,609.3911752697035 430.34340732340434,609.4606491895719 C430.3318283367596,611.3364450260206 430.32024935011486,613.2122408624692 430.32024935011486,615.0996156855626 C420.04968819622616,615.1690896054312 409.7675480556927,615.1227736588522 399.496986901804,615.1459316321417 C399.46224994186986,599.2711409421964 399.450670955225,583.4079292388959 399.496986901804,567.5331385489508 z" id="svg_23" fill-opacity="1"/>
<path fill="#3f51b5" opacity="1.00" d="M330.2662257528744,645.6449824543996 C337.5262503791295,641.8702328082128 347.59996876005755,642.2291813941999 353.47051498894314,648.3892022892041 C356.1336819172345,650.9944742842717 356.71263124947177,654.8039608903929 357.4073704481565,658.3008148571058 C355.1726260257207,658.33555181704 352.93788160328495,658.4166047235533 350.71471616749386,658.3239728303953 C349.11681601051913,655.3481732626959 348.3526028919659,651.2260540171667 344.6357481790028,650.1607872458502 C340.363102107092,648.9102566882177 334.596766758009,648.991309594731 331.9104418564282,653.1250078269048 C330.04622500662424,655.7418588086172 331.13464975123026,659.5513454147383 333.86729059939006,661.0913506384893 C340.0504694676839,664.9587321778341 348.1557601190053,665.0397850843473 353.57472586874593,670.2850660344168 C359.0052706051313,675.264030291657 358.4610582328282,685.4651175256773 351.9652467251263,689.3209200783773 C344.2999575663052,693.7093560167357 333.76307971958744,693.4546183105513 326.7809507728062,687.8156518145605 C323.57357147221194,685.2914327260061 322.6819895005666,681.1461555071875 321.81356550221074,677.3945638342901 C324.1756787777386,677.220879034619 326.56095002655604,677.128247141461 328.93464228872875,677.035615248303 C329.9535931134663,680.0229938026472 330.9957019114934,683.6009006758734 334.2378181720219,684.8977471800848 C338.2441475511037,686.5882792302175 343.3389016747914,686.8314379497572 347.1368092942678,684.4924826475187 C350.77261110071765,682.3272121449514 350.7610321140729,676.4798238893553 347.217862200781,674.2566584535642 C342.94521612887013,671.4313857122465 337.6883561921559,670.817699420075 333.103077480837,668.6640079041525 C328.9809582353078,666.9271599074408 324.8125230431996,663.7892545267149 324.0946258712254,659.0881859489484 C322.69356848721134,653.8660629721685 325.4377883220159,648.0070957299276 330.2662257528744,645.6449824543996 z" id="svg_24" fill-opacity="1"/>
<path fill="#3f51b5" opacity="1.00" d="M119.82972247128112,643.9312924309775 C129.98449375872238,643.9312924309775 140.15084403280838,643.8502395244642 150.30561532024964,643.9776083775564 C150.31719430689438,645.9112991472288 150.31719430689438,647.8681478901907 150.28245734696014,649.8249966331525 C142.54769426827056,649.894470553021 134.81293118958098,649.8249966331525 127.07816811089143,649.8597335930868 C127.05501013760193,654.5492231842085 127.05501013760193,659.2502917619748 127.07816811089143,663.9513603397413 C133.77082239155396,663.962939326386 140.4634766722165,663.9397813530966 147.156130952879,663.962939326386 C147.24876284603698,665.9661040159269 147.28349980597122,667.9808476921125 147.24876284603698,670.0071703549429 C140.53295059208494,670.1229602213904 133.8055593514882,670.0419073148771 127.07816811089143,670.0766442748113 C127.05501013760193,675.3219252248808 127.05501013760193,680.578785161595 127.07816811089143,685.8240661116644 C134.85924713615998,685.8356450983091 142.64032616142853,685.8356450983091 150.4214051866971,685.8356450983091 C150.43298417334182,687.7345989080472 150.43298417334182,689.6451317044301 150.4214051866971,691.5672434874579 C140.22031795267685,691.5325065275237 130.01923071865662,691.6135594340368 119.80656449799164,691.5209275408788 C119.78340652470214,675.6577158375784 119.74866956476791,659.7945041342779 119.82972247128112,643.9312924309775 z" id="svg_25" fill-opacity="1"/>
<path fill="#3f51b5" opacity="1.00" d="M153.8603642201863,644.0007663508459 C156.7203739214383,644.2555040570303 160.11301700834855,643.0976053925558 162.64881508354767,644.5912946697279 C166.51619662289247,649.8597335930868 169.58462808374983,655.660805902104 173.23200887684447,661.0797716518446 C176.89096865658385,655.3713312359854 180.46887552981002,649.6165748735472 184.0467824030362,643.8618185111089 C186.87205514435394,643.8849764843984 189.69732788567168,643.9197134443327 192.52260062698943,644.0123453374906 C187.80995306257827,651.9902671357198 182.65730400566682,659.6902932544753 177.73623468165025,667.5408461996122 C182.62256704573258,675.5882419177099 188.02995380882842,683.3114260097548 192.80049630646332,691.4282956477209 C189.95206559185607,691.5209275408788 187.10363487724882,691.5556645008131 184.2552041626416,691.5904014607473 C180.59624438290223,685.7314342185064 176.86781068329438,679.9303619094892 173.2435878634892,674.0598156806036 C169.61936504368407,679.9650988694235 165.80987843756301,685.754592191796 162.1393396711789,691.6367174073263 C159.27932996992692,691.5788224741026 156.43089925531967,691.5209275408788 153.5708895540677,691.4398746343657 C158.53827482466323,683.4156368895574 163.70250286821945,675.5303469844862 168.80883597855194,667.6103201194807 C163.8414507079564,659.7366092010542 158.70038063768968,651.9555301757856 153.8603642201863,644.0007663508459 z" id="svg_26" fill-opacity="1"/>
<path fill="#3f51b5" opacity="1.00" d="M198.97209618811232,643.9428714176222 C205.96580412153824,643.9891873642011 212.98267002825364,643.6881337114378 219.97637796167953,644.1281352039381 C225.53429155115708,644.3365569635434 230.97641527418716,647.9492007967038 232.73642124418842,653.3218505998656 C235.0406395864926,659.7481881876989 232.93326401714904,668.3513752647443 226.310083656355,671.3040168591543 C219.99953593496903,674.2566584535642 212.739511308714,672.9829699226423 206.00054108147248,673.3071815486952 C205.9889620948277,679.3861495371863 205.9889620948277,685.4766965123221 205.97738310818298,691.5556645008131 C203.6384278059445,691.5440855141684 201.3110514903508,691.5440855141684 198.98367517475708,691.5325065275237 C198.92578024153335,675.6692948242231 198.94893821482285,659.8060831209226 198.97209618811232,643.9428714176222 M205.9889620948277,649.8597335930868 C205.97738310818298,655.6723848887488 205.9889620948277,661.4966151710554 205.9889620948277,667.320845453362 C211.07213723187073,667.1355816670462 216.38689210180863,668.0387426253362 221.29638243918043,666.3945265217825 C227.64166712050064,664.2408350058599 227.80377293352706,654.0397477718396 221.87533177141768,651.2839489503904 C216.94268346075637,648.9565726347967 211.25740101818664,650.1144712992711 205.9889620948277,649.8597335930868 z" id="svg_27" fill-opacity="1"/>
<path fill="#3f51b5" opacity="1.00" d="M240.63329013590442,643.9312924309775 C250.6954295301877,643.9197134443327 260.757568924471,643.8849764843984 270.81970831875424,643.9428714176222 C270.8428662920437,645.899720160584 270.85444527868856,647.856568903546 270.8428662920437,649.8249966331525 C263.1196821999989,649.8828915663763 255.3849191213094,649.8597335930868 247.6617350292645,649.8597335930868 C247.6501560426198,654.5376441975637 247.6617350292645,659.2271337886854 247.67331401590923,663.9166233798071 C254.4586001897298,663.9860972996755 261.25546535019504,663.8934654065176 268.0523305106603,664.009255272965 C268.063909497305,665.9892619892164 268.0754884839497,667.9808476921125 268.0754884839497,669.9840123816534 C261.27862332348445,670.1576971813246 254.493337149664,670.0303283282324 247.69647198919876,670.0650652881666 C247.63857705597502,675.310346238236 247.63857705597502,680.5672061749502 247.6617350292645,685.8240661116644 C255.52386696104628,685.8472240849538 263.3744199061833,685.8124871250196 271.2365518379651,685.8588030715986 C271.31760474447833,687.7345989080472 271.329183731123,689.6335527177854 271.24813082460986,691.5325065275237 C261.0586225772343,691.6019804473921 250.85753534321407,691.5672434874579 240.65644810919383,691.5440855141684 C240.58697418932542,675.6692948242231 240.6448691225491,659.7945041342779 240.63329013590442,643.9312924309775 z" id="svg_28" fill-opacity="1"/>
<path fill="#3f51b5" opacity="1.00" d="M277.9407851052723,643.8849764843984 C280.8007948065244,644.2323460837408 284.86501911882976,642.6691828867002 286.41660332922567,645.9807730670973 C293.6071540356122,656.8302835532232 300.45033514265634,667.911373772244 307.86088659529315,678.621936418633 C308.13878227476704,667.0545287605329 307.87246558193783,655.4871211024328 308.01141342167483,643.9197134443327 C310.28089480404475,643.8965554710431 312.5387971997701,643.9081344576879 314.8082785821401,643.9312924309775 C314.8430155420742,659.8639780541464 314.8661735153638,675.8082426639601 314.79669959549534,691.740928287129 C312.35353341345416,691.5788224741026 309.8524722981892,691.740928287129 307.46720104937174,691.1388209816023 C299.8134908771955,679.9650988694235 292.8082039571248,668.3397962780996 285.0618618917905,657.2239690991445 C284.88817709211924,668.6524289175077 285.05028290514576,680.1040467091605 284.9576510119877,691.5440855141684 C282.6071167231046,691.5440855141684 280.2565824342213,691.5440855141684 277.90604814533816,691.5556645008131 C277.90604814533816,675.6692948242231 277.8597321987591,659.7713461609884 277.9407851052723,643.8849764843984 z" id="svg_29" fill-opacity="1"/>
<path fill="#3f51b5" opacity="1.00" d="M364.1231827021084,643.9428714176222 C374.2895329761945,643.8965554710431 384.46746223692514,643.8965554710431 394.6453914976559,643.9544504042669 C394.65697048430064,645.899720160584 394.6453914976559,647.856568903546 394.63381251101123,649.8249966331525 C386.8874704456769,649.8828915663763 379.1411283803426,649.8481546064421 371.3947863150083,649.8481546064421 C371.38320732836354,654.5492231842085 371.38320732836354,659.2502917619748 371.406365301653,663.9513603397413 C378.09901958231546,663.962939326386 384.80325284962277,663.9282023664518 391.4959071302854,663.9860972996755 C391.5769600367986,665.9892619892164 391.58853902344333,668.004005665402 391.553802063509,670.0303283282324 C384.8379898095571,670.1113812347456 378.1105985689603,670.0419073148771 371.3947863150083,670.0766442748113 C371.3716283417187,675.3219252248808 371.406365301653,680.578785161595 371.406365301653,685.8356450983091 C379.1874443269215,685.8356450983091 386.9801023388348,685.8356450983091 394.76118136410344,685.8356450983091 C394.7727603507482,687.7345989080472 394.76118136410344,689.656710691075 394.76118136410344,691.5788224741026 C384.54851514343846,691.5556645008131 374.3358489227734,691.5904014607473 364.1231827021084,691.5325065275237 C364.08844574217426,675.6692948242231 364.100024728819,659.8060831209226 364.1231827021084,643.9428714176222 z" id="svg_30" fill-opacity="1"/>
<path fill="#3f51b5" opacity="1.00" d="M62.78005527262313,722.0431363364263 C69.57692043308838,718.4536504765555 78.7706358290158,718.5810193296476 84.74539293770415,723.7568263598486 C88.3927737307988,726.8947317405745 89.62014631514175,731.7347481580778 90.47699132685287,736.2621319361731 C88.21908893112762,736.354763829331 85.94960754875763,736.5284486290021 83.69170515303237,736.4126587625548 C81.93169918303116,733.5179121013686 81.50327667717559,729.7200044818921 78.6664249492131,727.5778919526144 C73.78009258513076,724.4978815051122 66.41585707907302,725.4936743565603 63.25479372505768,730.6115864535376 C59.59583394531829,736.6095015355154 59.66530786518676,744.159000827889 60.82320652966125,750.8863920684859 C61.55268268828017,755.46009179316 63.76426913742645,760.5548459168477 68.5000746751271,762.1527460738225 C72.05482357506378,762.9748541255994 76.24641674046143,762.7664323659941 79.2337952948056,760.4274770637556 C81.56117161039931,758.2969435211226 82.20959486250503,755.0895642205282 83.19380872730835,752.2295545192762 C85.61381693606002,752.2295545192762 88.04540413145645,752.2642914792104 90.46541234020813,752.3453443857237 C89.53909340862853,757.0811499234243 88.10329906468017,762.2337989803358 83.981179819151,765.2095985480353 C75.80641524796111,771.1264607234998 62.316895806833344,770.0032990189596 56.81687715057953,760.9369524761244 C52.49791513208969,754.4758779283567 53.06528547768218,746.38216626368 53.30844419722183,738.983193797688 C53.60949784998519,732.3368554636045 56.79371917729003,725.3778844901128 62.78005527262313,722.0431363364263 z" id="svg_31" fill-opacity="1"/>
<path fill="#3f51b5" opacity="1.00" d="M182.05519670014007,722.0431363364263 C188.84048287396055,718.4189135166212 198.034198269888,718.6157562895819 204.00895537857636,723.7568263598486 C207.67949414496047,726.8831527539297 208.8489717960797,731.7694851180121 209.7521327543698,736.2968688961073 C207.48265137199982,736.3431848426862 205.21316998962982,736.5168696423574 202.95526759390458,736.3779218026204 C200.91736594442946,733.0779106088683 200.47736445192916,728.2378941913648 196.36682419304472,726.6978889676137 C192.33733684067352,725.2852525969549 187.2194247436963,725.4705163832708 184.10467733625993,728.7357906170889 C180.21413782362563,732.6031721564336 179.47308267836198,738.4505604120299 179.380450785204,743.6842623754545 C179.57729355816465,749.0453331919714 180.10992694382293,754.8811424609228 183.53730699066742,759.2695783992812 C186.733107304617,763.2411708184286 192.80049630646332,763.3801186581655 197.11945832495314,761.3537959953352 C200.74368114475828,759.6401059719129 200.80157607798202,755.0316692873045 203.0942154336415,752.2527124925657 C205.3058018827878,752.102185666184 207.5289673185788,752.241133505921 209.74055376772506,752.333765399079 C208.77949787621125,757.3474666162534 207.10054481272323,762.7895903392836 202.573161034628,765.719073960404 C194.57208126310928,770.8717230173155 182.15940757994278,769.8643511792227 176.54359905724152,761.6316916748091 C171.78463554625137,755.101143207173 172.2825319719754,746.6369039698644 172.54884866480452,738.983193797688 C172.90779725079162,732.3368554636045 176.01096567158325,725.3431475301786 182.05519670014007,722.0431363364263 z" id="svg_32" fill-opacity="1"/>
<path fill="#3f51b5" opacity="1.00" d="M388.28852782969096,719.8199709006353 C394.4948646712743,719.0094418355031 401.3727827382527,721.1283963914915 405.27490123753176,726.2115715285345 C408.36649067167866,730.183163947682 409.77912704233745,735.1968651648565 409.9528118420087,740.1758294220969 C410.3349184012853,747.4590120216413 410.21912853483775,755.46009179316 405.74963968996633,761.6201126881643 C398.97593250279056,771.253829576592 382.55692944054226,771.1148817368551 375.92217009310343,761.4116909285589 C370.82741596941577,754.3716670485541 371.19794354204754,745.1895306392713 371.9621566606008,736.9684501215024 C373.0158444452725,728.5389478441282 379.44218203310595,720.5262890859648 388.28852782969096,719.8199709006353 M387.07273423199274,726.6052570744558 C382.6842982936345,727.9947354718252 380.39165893797497,732.54527722321 379.44218203310595,736.7484493752523 C377.8674398494206,743.6958413620993 378.261125395342,751.4421834274335 381.88534821514713,757.7179941888853 C385.4400971150838,763.6811723109289 395.1085509634457,764.1095948167845 399.3117231154882,758.6327341338201 C402.99384086851694,754.1632452889486 403.14436769489873,747.9916454072996 403.04015681509594,742.4800477644011 C402.97068289522747,737.5705574270293 401.94015308384525,732.1863286372228 398.1654034376584,728.7242116304441 C395.28223576311694,725.8989388891264 390.8011679316007,725.5515692897841 387.07273423199274,726.6052570744558 z" id="svg_33" fill-opacity="1"/>
<path fill="#3f51b5" opacity="1.00" d="M110.99495566134078,720.1441825266882 C113.1370681906186,720.2715513797804 115.32549666647537,720.3410252996489 117.4212932491742,720.8736586853071 C123.5928931308232,736.5052906557127 129.44028138641937,752.2642914792104 135.47293342833146,767.9538183828398 C132.91397737984283,767.9538183828398 130.34344234470947,767.9653973694845 127.78448629622085,767.9538183828398 C126.41816587214095,763.9590679904028 124.97079254154784,759.9990545579001 123.60447211746796,756.0158831521078 C117.30550338272676,756.3053578182264 110.7981128883801,755.2632490201994 104.6265130067311,756.5253585644766 C102.93598095659837,760.2306342907949 101.76650330547912,764.1559107633634 100.40018288139925,767.988555342774 C97.87596379284483,767.9769763561293 95.34016571764573,767.9653973694845 92.80436764244659,767.9538183828398 C98.73280880455596,751.9632378264471 104.96230361942872,736.0884471365018 110.99495566134078,720.1441825266882 M107.08125817541702,749.693756444077 C111.79390573982818,749.7979673238798 116.4949743175946,749.7748093505903 121.19604289536102,749.7284934040114 C118.89182455305678,743.2211029096648 116.56444823746307,736.7252914019629 114.08654509548765,730.2757958408399 C111.6896948600255,736.7252914019629 109.31600259785276,743.1747869630857 107.08125817541702,749.693756444077 z" id="svg_34" fill-opacity="1"/>
<path fill="#3f51b5" opacity="1.00" d="M140.6718984318219,720.3410252996489 C143.09190664057357,720.329446313004 145.51191484932525,720.3410252996489 147.94350204472167,720.3641832729384 C147.94350204472167,734.3284411665006 147.94350204472167,748.292699060063 147.94350204472167,762.2569569536253 C155.31931653742416,762.2801149269147 162.69513103012665,762.2453779669805 170.05936653618437,762.2801149269147 C170.07094552282913,764.1674897500081 170.07094552282913,766.0664435597463 170.07094552282913,767.988555342774 C160.26354383473023,768.0001343294188 150.45614214663132,767.9769763561293 140.64874045853242,767.9653973694845 C140.63716147188765,752.0906066795393 140.59084552530868,736.215815989594 140.6718984318219,720.3410252996489 z" id="svg_35" fill-opacity="1"/>
<path fill="#3f51b5" opacity="1.00" d="M216.22478628878218,720.3062883397146 C218.5753205776654,720.3178673263593 220.9258548665486,720.3410252996489 223.28796814207652,720.3989202328726 C223.39217902187926,731.271588692288 223.12586232905016,742.1558361383481 223.38060003523452,753.0285045977636 C223.357442061945,757.2432557364508 226.2521887231312,761.5159018083616 230.53641378168686,762.3032729002042 C233.83642497543917,762.7432743927046 237.6459115815602,762.8359062858625 240.33223648314106,760.5316879435583 C243.40066794399837,758.2737855478331 243.73645855669605,754.1400873156591 243.92172234301194,750.6432333489462 C244.01435423616988,740.5347780080839 243.87540639643294,730.4263226672216 243.9564593029462,720.3178673263593 C246.34173055176365,720.3178673263593 248.7270018005811,720.3410252996489 251.12385203604327,720.3873412462278 C251.01964115624054,731.6421162649199 251.27437886242495,742.9200492569014 251.01964115624054,754.1748242755933 C250.90385128979312,759.7443168517157 247.2680494833432,764.9085448952718 242.1385583997212,767.0506574245496 C235.37643019919022,770.0032990189596 226.76166413549998,769.4938236065908 220.97217081312758,764.6885441490217 C217.60268569950682,761.8285344477697 216.22478628878218,757.324308642964 216.27110223536118,753.0169256111188 C216.13215439562424,742.1210991784139 216.24794426207168,731.2136937590643 216.22478628878218,720.3062883397146 z" id="svg_36" fill-opacity="1"/>
<path fill="#3f51b5" opacity="1.00" d="M259.6112492466412,720.3526042862936 C262.0312574553929,720.3410252996489 264.45126566414456,720.3410252996489 266.8712738728962,720.3526042862936 C266.90601083283053,734.3168621798559 266.88285285954106,748.292699060063 266.8944318461858,762.2569569536253 C274.31656228546717,762.3032729002042 281.7386927247487,762.222219993691 289.17240215067494,762.314851886849 C289.14924417738536,764.1790687366529 289.1376651907406,766.0664435597463 289.1376651907406,767.9538183828398 C279.27236856941806,768.0117133160635 269.4186509347402,767.988555342774 259.5533543134175,767.9653973694845 C259.5996702599965,752.0906066795393 259.48388039354904,736.2273949762388 259.6112492466412,720.3526042862936 z" id="svg_37" fill-opacity="1"/>
<path fill="#3f51b5" opacity="1.00" d="M309.2619439793072,720.3062883397146 C311.3808985352956,720.3062883397146 313.51143207792865,720.3526042862936 315.6303866339169,720.4104992195173 C321.6051437426053,736.2505529495282 327.75358565096485,752.0211327596708 333.7167637730084,767.8611864896818 C331.2157026577436,767.942239396195 328.7146415424786,768.0001343294188 326.22515941385853,768.0811872359319 C324.7314701366864,764.0401208969159 323.2840968060933,759.9874755712552 321.7672495556317,755.9695672055288 C315.5145967674695,755.9927251788183 309.25036499266247,755.9927251788183 302.9977122045003,755.9811461921736 C301.5271809006176,759.9758965846105 300.11454452995883,764.0053839369817 298.60927626614193,768.0001343294188 C296.14295211081134,767.9653973694845 293.6766279554807,767.9538183828398 291.21030380015003,767.9075024362608 C296.9534811759434,751.9400798531576 303.1945549774609,736.1463420697256 309.2619439793072,720.3062883397146 M312.3419544268094,730.5073755737349 C309.87563027147877,736.8642392416998 307.59456990246395,743.2905768295332 305.30193054680456,749.7169144173666 C310.04931507114986,749.7748093505903 314.79669959549534,749.7632303639456 319.5556631064854,749.7400723906561 C317.1124969244443,743.3368927761121 315.00512135510075,736.8179232951207 312.3419544268094,730.5073755737349 z" id="svg_38" fill-opacity="1"/>
<path fill="#3f51b5" opacity="1.00" d="M331.1693867111646,720.3526042862936 C343.4778495145283,720.329446313004 355.77473333124743,720.329446313004 368.08319613461117,720.3757622595831 C368.10635410790064,722.3326110025449 368.10635410790064,724.3010387321516 368.0947751212559,726.281045448403 C363.08107390408145,726.2926244350477 358.07895167355167,726.281045448403 353.06525045637716,726.281045448403 C353.08840842966663,740.1758294220969 353.0768294430219,754.0821923824354 353.0768294430219,767.9769763561293 C350.7841900873624,767.9653973694845 348.49155073170283,767.9769763561293 346.19891137604344,767.988555342774 C346.1641744161091,754.0821923824354 346.2104903626882,740.1874084087416 346.1641744161091,726.3042034216925 C341.16205218557934,726.2694664617583 336.1599299550496,726.2694664617583 331.15780772451984,726.2694664617583 C331.13464975123026,724.2894597455069 331.13464975123026,722.3094530292555 331.1693867111646,720.3526042862936 z" id="svg_39" fill-opacity="1"/>
<path fill="#3f51b5" opacity="1.00" d="M418.4865249991857,720.4104992195173 C425.26023218636135,720.3873412462278 432.0570973468266,720.0515506335303 438.8192255473576,720.6999738856359 C443.566610071703,721.2557652445837 448.7308381152592,723.7684053464933 450.42137016539203,728.5621058174177 C452.07716525559056,733.0547526355787 451.94979640249835,738.4737183853193 449.28662947420696,742.572679657559 C447.6887293172322,744.8768979998632 445.2224051619016,746.3242713304563 443.0571346593342,748.0263823672339 C446.8203053188763,754.6032467814489 450.47926509861577,761.2380061288877 454.0224350119077,767.9306604095502 C451.3129521370373,767.9538183828398 448.61504824881183,767.9653973694845 445.9171443605863,767.9769763561293 C442.52450127367604,761.909587354283 439.53712271933176,755.6221976061864 435.9823738193951,749.6474404974981 C432.63604667906384,748.9527012988134 429.1970876455747,749.3116498848005 425.80444455866444,749.242175964932 C425.7697075987301,755.4832497664495 425.8391815185986,761.724323567967 425.78128658537486,767.9769763561293 C423.3381204033338,767.9538183828398 420.90653320793734,767.942239396195 418.4633670258961,767.9306604095502 C418.4865249991857,752.0906066795393 418.47494601254084,736.2505529495282 418.4865249991857,720.4104992195173 M425.8160235453092,726.2463084884687 C425.7928655720196,731.86211701117 425.7928655720196,737.4663465472265 425.8160235453092,743.0937340565725 C430.5981450295888,742.9316282435461 435.76237307314494,743.7768942686124 440.23186191801653,741.6695186992689 C445.5350378013096,738.9137198778196 445.39608996157267,729.9515842147871 439.84975535873997,727.5778919526144 C435.43816144709217,725.644201182942 430.4823551631413,726.4084143014951 425.8160235453092,726.2463084884687 z" id="svg_40" fill-opacity="1"/>
</g></g></svg>