<?xml version="1.0" encoding="UTF-8" ?>
<!DOCTYPE svg PUBLIC "-//W3C//DTD SVG 1.1//EN" "http://www.w3.org/Graphics/SVG/1.1/DTD/svg11.dtd">
<svg width="502pt" height="787pt" viewBox="0 0 502 787" version="1.1" xmlns="http://www.w3.org/2000/svg">
<g id="#3248a9ff">
</g>
<g id="#fefffeff">
<path fill="#fefffe" opacity="1.00" d=" M 238.78 64.55 C 249.45 64.49 260.11 64.53 270.77 64.54 C 270.73 68.50 270.73 72.46 270.72 76.42 C 269.89 77.07 269.10 77.78 268.37 78.54 C 267.97 82.35 268.31 86.20 268.20 90.02 C 268.32 92.89 267.68 96.08 269.39 98.61 C 295.62 142.16 321.88 185.69 348.04 229.28 C 353.28 229.26 358.51 229.27 363.75 229.27 C 363.73 234.49 363.72 239.70 363.77 244.93 C 361.32 244.97 358.88 244.99 356.45 245.04 C 356.49 334.01 356.45 422.98 356.47 511.95 C 290.06 511.98 223.65 511.98 157.24 511.95 C 157.29 422.96 157.25 333.96 157.26 244.97 C 154.75 244.99 152.25 244.96 149.76 244.95 C 149.79 239.72 149.78 234.50 149.76 229.27 C 154.78 229.27 159.79 229.28 164.81 229.25 C 189.91 185.57 215.18 141.98 240.32 98.32 C 242.28 93.14 240.87 87.35 241.27 81.92 C 241.69 79.23 239.61 77.28 238.92 74.88 C 238.56 71.45 238.81 67.99 238.78 64.55 M 232.98 160.98 C 232.98 183.74 232.97 206.50 232.99 229.26 C 248.32 229.29 263.65 229.25 278.98 229.28 C 279.06 206.51 278.99 183.74 279.02 160.97 C 263.67 161.00 248.33 160.97 232.98 160.98 M 165.74 245.74 C 165.75 331.67 165.73 417.61 165.75 503.54 C 187.68 503.53 209.61 503.53 231.54 503.54 C 231.53 474.02 231.52 444.49 231.54 414.96 C 231.46 409.64 234.35 404.69 238.35 401.35 C 249.17 392.40 266.54 392.59 277.02 402.00 C 280.96 405.49 283.24 410.68 283.22 415.95 C 283.25 445.14 283.19 474.35 283.25 503.54 C 304.83 503.54 326.41 503.51 347.99 503.56 C 348.08 417.62 348.00 331.68 348.03 245.74 C 287.27 245.73 226.51 245.74 165.74 245.74 M 239.35 418.20 C 239.02 425.88 239.34 433.58 239.23 441.27 C 244.23 441.25 249.24 441.28 254.25 441.27 C 254.23 429.26 254.32 417.25 254.21 405.24 C 247.56 406.54 240.06 410.75 239.35 418.20 M 262.09 405.54 C 261.84 417.45 261.99 429.36 262.02 441.28 C 266.52 441.26 271.03 441.27 275.54 441.26 C 275.31 433.43 275.93 425.56 275.23 417.76 C 274.32 411.13 267.99 407.24 262.09 405.54 Z" />
<path fill="#fefffe" opacity="1.00" d=" M 237.79 166.79 C 242.77 166.77 247.76 166.77 252.74 166.79 C 252.73 171.77 252.73 176.76 252.74 181.74 C 247.75 181.72 242.75 181.75 237.76 181.74 C 237.78 176.75 237.77 171.77 237.79 166.79 Z" />
<path fill="#fefffe" opacity="1.00" d=" M 259.24 166.78 C 264.24 166.77 269.24 166.76 274.24 166.79 C 274.21 171.77 274.21 176.76 274.24 181.74 C 269.25 181.73 264.26 181.73 259.27 181.75 C 259.26 176.76 259.27 171.77 259.24 166.78 Z" />
<path fill="#fefffe" opacity="1.00" d=" M 237.77 188.05 C 242.77 188.03 247.78 188.03 252.78 188.05 C 252.73 192.95 252.72 197.86 252.74 202.77 C 247.76 202.74 242.77 202.73 237.79 202.75 C 237.76 197.85 237.78 192.95 237.77 188.05 Z" />
<path fill="#fefffe" opacity="1.00" d=" M 259.24 188.05 C 264.23 188.04 269.23 188.03 274.22 188.03 C 274.21 192.94 274.24 197.85 274.20 202.77 C 269.22 202.74 264.24 202.71 259.25 202.77 C 259.27 197.86 259.28 192.95 259.24 188.05 Z" />
<path fill="#fefffe" opacity="1.00" d=" M 237.78 208.55 C 242.77 208.51 247.76 208.52 252.76 208.54 C 252.72 213.51 252.73 218.49 252.76 223.46 C 247.77 223.50 242.78 223.48 237.79 223.47 C 237.77 218.50 237.77 213.52 237.78 208.55 Z" />
<path fill="#fefffe" opacity="1.00" d=" M 259.24 208.54 C 264.23 208.53 269.22 208.51 274.21 208.53 C 274.23 213.51 274.21 218.49 274.22 223.47 C 269.23 223.50 264.24 223.47 259.25 223.48 C 259.27 218.50 259.28 213.52 259.24 208.54 Z" />
<path fill="#fefffe" opacity="1.00" d=" M 177.24 270.54 C 192.57 270.51 207.91 270.49 223.24 270.54 C 223.21 286.27 223.22 302.01 223.23 317.74 C 207.90 317.74 192.57 317.72 177.24 317.75 C 177.24 302.02 177.28 286.28 177.24 270.54 M 181.97 276.22 C 181.95 281.24 181.97 286.25 181.97 291.26 C 186.99 291.26 192.00 291.25 197.02 291.26 C 197.01 286.25 197.03 281.24 197.02 276.23 C 192.00 276.21 186.99 276.22 181.97 276.22 M 203.46 276.22 C 203.48 281.23 203.49 286.24 203.46 291.25 C 208.49 291.28 213.52 291.26 218.55 291.26 C 218.51 286.25 218.51 281.24 218.54 276.23 C 213.51 276.22 208.48 276.22 203.46 276.22 M 181.98 297.45 C 181.96 302.48 181.96 307.51 181.98 312.55 C 186.98 312.50 191.98 312.52 196.98 312.53 C 197.05 307.50 197.02 302.48 196.99 297.46 C 191.99 297.48 186.98 297.48 181.98 297.45 M 203.47 297.47 C 203.48 302.49 203.48 307.51 203.46 312.53 C 208.48 312.52 213.50 312.52 218.53 312.53 C 218.53 307.51 218.52 302.49 218.54 297.47 C 213.51 297.48 208.49 297.46 203.47 297.47 Z" />
<path fill="#fefffe" opacity="1.00" d=" M 233.03 270.52 C 248.34 270.52 263.65 270.50 278.96 270.53 C 278.99 286.27 278.99 302.01 278.95 317.76 C 263.65 317.72 248.35 317.72 233.04 317.75 C 232.99 302.01 233.02 286.27 233.03 270.52 M 237.75 276.21 C 237.74 281.22 237.74 286.23 237.75 291.24 C 242.76 291.27 247.77 291.25 252.78 291.26 C 252.75 286.24 252.76 281.23 252.79 276.22 C 247.77 276.21 242.76 276.23 237.75 276.21 M 259.23 276.22 C 259.22 281.23 259.23 286.24 259.22 291.25 C 264.23 291.27 269.25 291.26 274.26 291.24 C 274.27 286.23 274.24 281.22 274.27 276.21 C 269.25 276.23 264.24 276.24 259.23 276.22 M 237.74 297.46 C 237.75 302.49 237.74 307.52 237.75 312.56 C 242.75 312.50 247.76 312.51 252.76 312.54 C 252.77 307.52 252.76 302.50 252.77 297.47 C 247.76 297.47 242.75 297.48 237.74 297.46 M 259.22 297.47 C 259.24 302.49 259.24 307.51 259.24 312.53 C 264.24 312.53 269.24 312.50 274.24 312.54 C 274.27 307.51 274.26 302.49 274.24 297.46 C 269.23 297.46 264.23 297.47 259.22 297.47 Z" />
<path fill="#fefffe" opacity="1.00" d=" M 292.24 270.54 C 307.48 270.49 322.71 270.52 337.95 270.52 C 337.98 286.26 337.98 302.01 337.95 317.75 C 322.73 317.72 307.50 317.73 292.27 317.75 C 292.22 302.01 292.28 286.27 292.24 270.54 M 297.00 276.21 C 296.98 281.22 296.98 286.24 297.00 291.26 C 302.00 291.26 307.01 291.26 312.02 291.25 C 312.03 286.24 312.04 281.23 312.02 276.23 C 307.02 276.22 302.01 276.23 297.00 276.21 M 318.23 276.23 C 318.21 281.24 318.23 286.25 318.20 291.26 C 323.22 291.25 328.23 291.26 333.25 291.25 C 333.26 286.24 333.27 281.24 333.26 276.23 C 328.25 276.22 323.24 276.22 318.23 276.23 M 297.01 297.45 C 296.97 302.48 296.97 307.51 297.02 312.54 C 302.02 312.52 307.02 312.49 312.02 312.55 C 312.04 307.52 312.03 302.50 312.01 297.47 C 307.01 297.47 302.01 297.48 297.01 297.45 M 318.22 297.45 C 318.21 302.49 318.21 307.52 318.24 312.55 C 323.25 312.50 328.26 312.51 333.27 312.53 C 333.27 307.51 333.26 302.50 333.26 297.48 C 328.25 297.46 323.23 297.48 318.22 297.45 Z" />
<path fill="#fefffe" opacity="1.00" d=" M 177.24 333.25 C 192.57 333.29 207.90 333.22 223.24 333.29 C 223.21 349.01 223.23 364.74 223.23 380.47 C 207.90 380.47 192.57 380.50 177.25 380.45 C 177.24 364.72 177.28 348.98 177.24 333.25 M 181.97 338.98 C 181.97 344.00 181.96 349.02 181.98 354.04 C 186.99 354.03 192.00 354.04 197.01 354.04 C 197.04 349.02 197.01 344.00 197.02 338.99 C 192.00 338.97 186.99 338.99 181.97 338.98 M 203.45 339.00 C 203.50 344.01 203.48 349.01 203.46 354.02 C 208.48 354.04 213.51 354.05 218.54 354.01 C 218.51 349.01 218.51 344.01 218.55 339.01 C 213.51 338.96 208.48 338.98 203.45 339.00 M 181.97 360.22 C 181.97 365.23 181.96 370.23 181.97 375.24 C 186.99 375.27 192.00 375.28 197.02 375.25 C 197.02 370.24 197.04 365.22 196.99 360.21 C 191.98 360.23 186.98 360.22 181.97 360.22 M 203.46 360.22 C 203.48 365.23 203.48 370.23 203.47 375.24 C 208.49 375.27 213.51 375.28 218.53 375.27 C 218.51 370.25 218.52 365.23 218.53 360.22 C 213.51 360.23 208.48 360.22 203.46 360.22 Z" />
<path fill="#fefffe" opacity="1.00" d=" M 292.26 333.27 C 307.48 333.26 322.71 333.28 337.94 333.25 C 338.00 348.99 337.96 364.73 337.96 380.47 C 322.72 380.47 307.48 380.50 292.24 380.46 C 292.27 364.73 292.24 349.00 292.26 333.27 M 296.99 338.98 C 296.99 344.00 296.98 349.02 297.00 354.04 C 302.00 354.03 307.01 354.04 312.02 354.04 C 312.04 349.02 312.03 344.00 312.02 338.99 C 307.01 338.98 302.00 338.97 296.99 338.98 M 318.21 338.99 C 318.23 344.00 318.22 349.02 318.23 354.03 C 323.23 354.03 328.23 354.04 333.24 354.05 C 333.26 349.02 333.26 344.00 333.26 338.98 C 328.24 338.98 323.22 338.98 318.21 338.99 M 297.00 360.21 C 296.97 365.23 296.98 370.25 296.99 375.27 C 302.00 375.28 307.01 375.25 312.02 375.26 C 312.03 370.25 312.04 365.24 312.02 360.23 C 307.01 360.21 302.00 360.23 297.00 360.21 M 318.23 360.22 C 318.20 365.23 318.22 370.24 318.23 375.26 C 323.24 375.27 328.25 375.28 333.26 375.25 C 333.26 370.24 333.28 365.23 333.24 360.22 C 328.24 360.22 323.24 360.22 318.23 360.22 Z" />
<path fill="#fefffe" opacity="1.00" d=" M 233.03 335.03 C 248.34 335.02 263.65 334.99 278.97 335.04 C 278.97 350.77 279.00 366.50 278.95 382.23 C 263.65 382.24 248.34 382.22 233.03 382.23 C 233.00 366.50 233.02 350.76 233.03 335.03 M 237.75 340.72 C 237.74 345.75 237.74 350.77 237.76 355.79 C 242.76 355.78 247.77 355.77 252.77 355.79 C 252.76 350.77 252.76 345.75 252.78 340.74 C 247.77 340.72 242.76 340.76 237.75 340.72 M 259.23 340.73 C 259.22 345.75 259.24 350.77 259.22 355.79 C 264.23 355.77 269.23 355.77 274.24 355.79 C 274.27 350.78 274.26 345.76 274.24 340.74 C 269.23 340.72 264.23 340.74 259.23 340.73 M 237.75 361.98 C 237.75 366.99 237.73 372.01 237.73 377.03 C 242.75 377.02 247.77 377.01 252.79 377.02 C 252.75 372.00 252.76 366.99 252.77 361.97 C 247.76 361.96 242.75 361.97 237.75 361.98 M 259.22 361.98 C 259.24 366.98 259.24 371.98 259.22 376.99 C 264.23 377.04 269.25 377.01 274.27 377.01 C 274.26 372.00 274.25 366.98 274.26 361.97 C 269.25 361.96 264.23 361.96 259.22 361.98 Z" />
<path fill="#fefffe" opacity="1.00" d=" M 177.25 396.26 C 192.58 396.29 207.90 396.23 223.22 396.29 C 223.22 419.01 223.23 441.73 223.23 464.45 C 207.90 464.48 192.57 464.49 177.24 464.45 C 177.27 441.72 177.25 418.99 177.25 396.26 M 181.98 401.97 C 181.98 406.99 181.97 412.00 181.96 417.02 C 186.98 417.02 192.01 417.01 197.03 417.02 C 197.02 412.00 197.03 406.98 197.02 401.97 C 192.01 401.97 186.99 401.98 181.98 401.97 M 203.21 401.98 C 203.23 406.98 203.25 411.99 203.21 416.99 C 208.23 417.03 213.25 417.01 218.27 417.03 C 218.25 412.01 218.28 406.99 218.25 401.98 C 213.24 401.95 208.22 401.96 203.21 401.98 M 181.98 423.20 C 181.96 428.22 181.97 433.24 181.96 438.26 C 186.98 438.26 192.00 438.26 197.02 438.26 C 197.01 433.24 197.04 428.22 196.99 423.21 C 191.99 423.25 186.99 423.24 181.98 423.20 M 203.23 423.21 C 203.24 428.23 203.22 433.25 203.22 438.28 C 208.23 438.25 213.25 438.28 218.26 438.26 C 218.26 433.24 218.26 428.22 218.25 423.20 C 213.24 423.26 208.24 423.25 203.23 423.21 M 181.96 443.75 C 181.96 448.77 181.96 453.78 181.98 458.80 C 186.98 458.76 191.98 458.77 196.98 458.80 C 197.02 453.78 197.04 448.76 197.02 443.75 C 192.00 443.74 186.98 443.74 181.96 443.75 M 203.24 443.73 C 203.23 448.75 203.23 453.77 203.21 458.79 C 208.22 458.76 213.23 458.77 218.25 458.81 C 218.28 453.78 218.27 448.76 218.26 443.74 C 213.25 443.74 208.24 443.75 203.24 443.73 Z" />
<path fill="#fefffe" opacity="1.00" d=" M 292.06 396.26 C 307.35 396.27 322.65 396.26 337.94 396.26 C 337.98 419.00 337.98 441.74 337.94 464.48 C 322.64 464.46 307.34 464.48 292.04 464.46 C 292.03 441.73 292.02 419.00 292.06 396.26 M 296.75 401.98 C 296.75 407.00 296.73 412.01 296.76 417.03 C 301.76 417.01 306.77 417.02 311.78 417.02 C 311.76 412.00 311.77 406.99 311.78 401.98 C 306.77 401.96 301.76 401.96 296.75 401.98 M 317.97 401.98 C 317.97 406.99 317.97 412.00 317.95 417.01 C 323.06 417.03 328.16 417.00 333.26 417.05 C 333.26 412.02 333.27 407.00 333.25 401.98 C 328.16 401.97 323.06 401.96 317.97 401.98 M 296.74 423.23 C 296.73 428.24 296.74 433.25 296.75 438.27 C 301.76 438.27 306.77 438.24 311.79 438.27 C 311.78 433.25 311.77 428.24 311.79 423.23 C 306.77 423.23 301.76 423.25 296.74 423.23 M 317.98 423.20 C 317.96 428.23 317.97 433.25 317.98 438.28 C 323.06 438.26 328.14 438.26 333.23 438.27 C 333.28 433.25 333.26 428.23 333.26 423.22 C 328.16 423.23 323.07 423.25 317.98 423.20 M 296.75 443.75 C 296.72 448.76 296.75 453.77 296.74 458.79 C 301.75 458.77 306.77 458.78 311.79 458.79 C 311.76 453.77 311.76 448.76 311.77 443.75 C 306.76 443.73 301.76 443.74 296.75 443.75 M 317.95 443.75 C 317.97 448.77 317.97 453.78 317.98 458.80 C 323.07 458.76 328.16 458.77 333.25 458.81 C 333.29 453.79 333.27 448.77 333.25 443.75 C 328.15 443.74 323.05 443.74 317.95 443.75 Z" />
<path fill="#fefffe" opacity="1.00" d=" M 165.43 540.51 C 170.84 539.46 176.92 541.14 180.62 545.33 C 183.55 548.84 184.94 553.42 185.11 557.95 C 185.43 564.24 185.34 571.15 181.48 576.46 C 175.61 584.78 161.46 584.67 155.70 576.28 C 151.42 570.47 151.71 562.88 152.17 556.05 C 152.82 548.81 157.87 541.58 165.43 540.51 M 165.35 546.21 C 162.14 547.25 160.18 550.30 159.17 553.36 C 157.57 558.61 157.60 564.34 159.23 569.58 C 160.12 572.12 161.47 574.73 163.95 576.04 C 167.56 577.97 172.58 577.56 175.42 574.43 C 178.79 570.87 179.20 565.63 179.14 560.98 C 179.15 556.42 178.49 551.29 174.92 548.06 C 172.42 545.65 168.57 545.27 165.35 546.21 Z" />
<path fill="#fefffe" opacity="1.00" d=" M 262.90 543.92 C 268.11 539.49 276.02 539.08 282.08 541.92 C 286.46 544.09 288.60 548.85 289.34 553.45 C 287.39 553.50 285.45 553.54 283.50 553.57 C 282.21 551.00 281.30 547.75 278.42 546.51 C 274.36 544.74 268.86 545.34 266.21 549.22 C 263.07 553.79 263.32 559.73 263.72 565.02 C 264.00 569.80 266.35 575.21 271.20 576.88 C 275.21 577.89 279.51 577.10 283.09 575.10 C 283.10 572.14 283.10 569.20 283.09 566.25 C 280.00 566.22 276.91 566.24 273.83 566.20 C 273.81 564.49 273.83 562.79 273.89 561.09 C 278.99 561.05 284.09 561.08 289.19 561.09 C 289.15 566.33 289.57 571.61 289.03 576.83 C 287.00 580.12 283.05 581.56 279.42 582.25 C 273.47 583.35 266.56 582.33 262.27 577.72 C 257.84 573.00 257.00 566.15 257.14 559.96 C 257.28 554.24 258.42 547.91 262.90 543.92 Z" />
<path fill="#fefffe" opacity="1.00" d=" M 342.48 541.52 C 348.80 539.07 357.30 539.58 361.78 545.24 C 363.79 547.50 364.37 550.56 365.23 553.38 C 363.23 553.46 361.24 553.55 359.25 553.63 C 357.93 550.85 356.88 547.35 353.65 546.28 C 350.15 545.11 345.71 545.23 343.00 548.03 C 339.67 551.43 339.24 556.49 339.11 561.00 C 339.34 565.95 339.99 571.56 343.84 575.11 C 348.14 578.59 354.44 577.53 358.98 575.07 C 359.01 572.12 359.03 569.18 359.02 566.24 C 355.84 566.22 352.67 566.25 349.50 566.19 C 349.43 564.48 349.45 562.79 349.58 561.10 C 354.70 561.07 359.82 561.07 364.95 561.10 C 364.86 566.31 365.27 571.55 364.79 576.75 C 362.44 580.48 357.88 581.97 353.71 582.47 C 347.77 583.28 341.02 581.71 337.23 576.76 C 332.56 570.97 332.70 563.08 333.17 556.06 C 333.70 550.13 336.65 543.84 342.48 541.52 Z" />
<path fill="#fefffe" opacity="1.00" d=" M 103.53 540.80 C 105.98 540.83 108.44 540.67 110.89 540.92 C 111.78 541.85 112.16 543.13 112.69 544.28 C 116.49 553.71 120.05 563.23 124.15 572.53 C 128.56 562.02 132.66 551.37 136.95 540.81 C 139.55 540.81 142.16 540.83 144.76 540.87 C 144.84 554.57 144.75 568.27 144.79 581.97 C 142.68 581.96 140.58 581.95 138.48 581.95 C 138.33 571.83 138.62 561.73 138.98 551.63 C 134.69 561.66 130.71 571.83 126.62 581.95 C 124.91 581.96 123.21 581.95 121.50 581.93 C 117.52 571.83 113.48 561.75 109.25 551.76 C 109.84 561.81 109.83 571.88 109.80 581.95 C 107.71 581.95 105.62 581.95 103.53 581.95 C 103.49 568.24 103.48 554.52 103.53 540.80 Z" />
<path fill="#fefffe" opacity="1.00" d=" M 192.19 540.87 C 198.11 540.86 204.06 540.58 209.96 541.14 C 214.95 541.66 219.93 545.17 220.54 550.43 C 221.93 556.25 218.51 561.97 213.43 564.70 C 216.63 570.37 219.88 576.03 222.79 581.87 C 220.50 581.93 218.21 581.97 215.92 581.99 C 212.81 576.69 210.51 570.87 206.90 565.90 C 204.10 565.65 201.29 565.78 198.49 565.81 C 198.51 571.18 198.51 576.56 198.47 581.93 C 196.37 581.94 194.28 581.96 192.18 581.97 C 192.20 568.27 192.17 554.57 192.19 540.87 M 198.47 545.97 C 198.51 550.79 198.50 555.60 198.51 560.42 C 202.46 560.39 206.64 560.95 210.42 559.54 C 215.48 557.59 215.70 549.38 210.81 547.12 C 206.96 545.35 202.57 546.09 198.47 545.97 Z" />
<path fill="#fefffe" opacity="1.00" d=" M 222.07 540.83 C 232.69 540.82 243.31 540.82 253.94 540.83 C 253.96 542.53 253.97 544.24 253.97 545.95 C 249.64 545.95 245.31 545.95 240.99 545.96 C 240.98 557.96 240.99 569.96 240.98 581.96 C 238.99 581.96 237.01 581.96 235.03 581.96 C 235.02 569.96 235.03 557.96 235.03 545.96 C 230.70 545.95 226.38 545.95 222.05 545.95 C 222.03 544.24 222.04 542.53 222.07 540.83 Z" />
<path fill="#fefffe" opacity="1.00" d=" M 308.93 540.63 C 310.79 540.70 312.65 540.88 314.48 541.27 C 319.73 554.80 324.89 568.38 330.05 581.94 C 327.83 581.95 325.62 581.95 323.42 581.93 C 322.25 578.48 320.98 575.07 319.78 571.64 C 314.34 571.85 308.75 570.99 303.41 572.05 C 301.96 575.25 300.98 578.65 299.76 581.95 C 297.57 581.95 295.38 581.94 293.19 581.94 C 298.36 568.14 303.67 554.40 308.93 540.63 M 305.50 566.17 C 309.56 566.24 313.63 566.22 317.70 566.23 C 315.74 560.59 313.73 554.97 311.59 549.40 C 309.49 554.97 307.46 560.56 305.50 566.17 Z" />
<path fill="#fefffe" opacity="1.00" d=" M 373.07 540.85 C 381.80 540.81 390.54 540.81 399.28 540.84 C 399.34 542.53 399.33 544.23 399.25 545.94 C 392.54 545.98 385.83 545.92 379.12 545.96 C 379.14 550.01 379.14 554.06 379.14 558.12 C 385.01 558.15 390.89 558.09 396.77 558.15 C 396.81 559.87 396.83 561.58 396.84 563.31 C 390.95 563.48 385.05 563.36 379.16 563.39 C 379.11 567.92 379.14 572.45 379.13 576.98 C 385.99 577.04 392.85 577.00 399.71 577.06 C 399.70 578.68 399.69 580.30 399.69 581.93 C 390.82 581.99 381.94 581.95 373.07 581.97 C 373.04 568.26 373.03 554.56 373.07 540.85 Z" />
<path fill="#fefffe" opacity="1.00" d=" M 313.28 608.31 C 319.55 605.05 328.25 605.36 333.32 610.68 C 335.62 612.93 336.12 616.22 336.72 619.24 C 334.79 619.27 332.86 619.34 330.94 619.26 C 329.56 616.69 328.90 613.13 325.69 612.21 C 322.00 611.13 317.02 611.20 314.70 614.77 C 313.09 617.03 314.03 620.32 316.39 621.65 C 321.73 624.99 328.73 625.06 333.41 629.59 C 338.10 633.89 337.63 642.70 332.02 646.03 C 325.40 649.82 316.30 649.60 310.27 644.73 C 307.50 642.55 306.73 638.97 305.98 635.73 C 308.02 635.58 310.08 635.50 312.13 635.42 C 313.01 638.00 313.91 641.09 316.71 642.21 C 320.17 643.67 324.57 643.88 327.85 641.86 C 330.99 639.99 330.98 634.94 327.92 633.02 C 324.23 630.58 319.69 630.05 315.73 628.19 C 312.17 626.69 308.57 623.98 307.95 619.92 C 306.74 615.41 309.11 610.35 313.28 608.31 Z" />
<path fill="#fefffe" opacity="1.00" d=" M 131.54 606.83 C 140.31 606.83 149.09 606.76 157.86 606.87 C 157.87 608.54 157.87 610.23 157.84 611.92 C 151.16 611.98 144.48 611.92 137.80 611.95 C 137.78 616.00 137.78 620.06 137.80 624.12 C 143.58 624.13 149.36 624.11 155.14 624.13 C 155.22 625.86 155.25 627.60 155.22 629.35 C 149.42 629.45 143.61 629.38 137.80 629.41 C 137.78 633.94 137.78 638.48 137.80 643.01 C 144.52 643.02 151.24 643.02 157.96 643.02 C 157.97 644.66 157.97 646.31 157.96 647.97 C 149.15 647.94 140.34 648.01 131.52 647.93 C 131.50 634.23 131.47 620.53 131.54 606.83 Z" />
<path fill="#fefffe" opacity="1.00" d=" M 160.93 606.89 C 163.40 607.11 166.33 606.11 168.52 607.40 C 171.86 611.95 174.51 616.96 177.66 621.64 C 180.82 616.71 183.91 611.74 187.00 606.77 C 189.44 606.79 191.88 606.82 194.32 606.90 C 190.25 613.79 185.80 620.44 181.55 627.22 C 185.77 634.17 190.44 640.84 194.56 647.85 C 192.10 647.93 189.64 647.96 187.18 647.99 C 184.02 642.93 180.80 637.92 177.67 632.85 C 174.54 637.95 171.25 642.95 168.08 648.03 C 165.61 647.98 163.15 647.93 160.68 647.86 C 164.97 640.93 169.43 634.12 173.84 627.28 C 169.55 620.48 165.11 613.76 160.93 606.89 Z" />
<path fill="#fefffe" opacity="1.00" d=" M 199.89 606.84 C 205.93 606.88 211.99 606.62 218.03 607.00 C 222.83 607.18 227.53 610.30 229.05 614.94 C 231.04 620.49 229.22 627.92 223.50 630.47 C 218.05 633.02 211.78 631.92 205.96 632.20 C 205.95 637.45 205.95 642.71 205.94 647.96 C 203.92 647.95 201.91 647.95 199.90 647.94 C 199.85 634.24 199.87 620.54 199.89 606.84 M 205.95 611.95 C 205.94 616.97 205.95 622.00 205.95 627.03 C 210.34 626.87 214.93 627.65 219.17 626.23 C 224.65 624.37 224.79 615.56 219.67 613.18 C 215.41 611.17 210.50 612.17 205.95 611.95 Z" />
<path fill="#fefffe" opacity="1.00" d=" M 235.87 606.83 C 244.56 606.82 253.25 606.79 261.94 606.84 C 261.96 608.53 261.97 610.22 261.96 611.92 C 255.29 611.97 248.61 611.95 241.94 611.95 C 241.93 615.99 241.94 620.04 241.95 624.09 C 247.81 624.15 253.68 624.07 259.55 624.17 C 259.56 625.88 259.57 627.60 259.57 629.33 C 253.70 629.48 247.84 629.37 241.97 629.40 C 241.92 633.93 241.92 638.47 241.94 643.01 C 248.73 643.03 255.51 643.00 262.30 643.04 C 262.37 644.66 262.38 646.30 262.31 647.94 C 253.51 648.00 244.70 647.97 235.89 647.95 C 235.83 634.24 235.88 620.53 235.87 606.83 Z" />
<path fill="#fefffe" opacity="1.00" d=" M 268.09 606.79 C 270.56 607.09 274.07 605.74 275.41 608.60 C 281.62 617.97 287.53 627.54 293.93 636.79 C 294.17 626.80 293.94 616.81 294.06 606.82 C 296.02 606.80 297.97 606.81 299.93 606.83 C 299.96 620.59 299.98 634.36 299.92 648.12 C 297.81 647.98 295.65 648.12 293.59 647.60 C 286.98 637.95 280.93 627.91 274.24 618.31 C 274.09 628.18 274.23 638.07 274.15 647.95 C 272.12 647.95 270.09 647.95 268.06 647.96 C 268.06 634.24 268.02 620.51 268.09 606.79 Z" />
<path fill="#fefffe" opacity="1.00" d=" M 342.52 606.84 C 351.30 606.80 360.09 606.80 368.88 606.85 C 368.89 608.53 368.88 610.22 368.87 611.92 C 362.18 611.97 355.49 611.94 348.80 611.94 C 348.79 616.00 348.79 620.06 348.81 624.12 C 354.59 624.13 360.38 624.10 366.16 624.15 C 366.23 625.88 366.24 627.62 366.21 629.37 C 360.41 629.44 354.60 629.38 348.80 629.41 C 348.78 633.94 348.81 638.48 348.81 643.02 C 355.53 643.02 362.26 643.02 368.98 643.02 C 368.99 644.66 368.98 646.32 368.98 647.98 C 360.16 647.96 351.34 647.99 342.52 647.94 C 342.49 634.24 342.50 620.54 342.52 606.84 Z" />
<path fill="#fefffe" opacity="1.00" d=" M 82.27 674.29 C 88.14 671.19 96.08 671.30 101.24 675.77 C 104.39 678.48 105.45 682.66 106.19 686.57 C 104.24 686.65 102.28 686.80 100.33 686.70 C 98.81 684.20 98.44 680.92 95.99 679.07 C 91.77 676.41 85.41 677.27 82.68 681.69 C 79.52 686.87 79.58 693.39 80.58 699.20 C 81.21 703.15 83.12 707.55 87.21 708.93 C 90.28 709.64 93.90 709.46 96.48 707.44 C 98.49 705.60 99.05 702.83 99.90 700.36 C 101.99 700.36 104.09 700.39 106.18 700.46 C 105.38 704.55 104.14 709.00 100.58 711.57 C 93.52 716.68 81.87 715.71 77.12 707.88 C 73.39 702.30 73.88 695.31 74.09 688.92 C 74.35 683.18 77.10 677.17 82.27 674.29 Z" />
<path fill="#fefffe" opacity="1.00" d=" M 185.28 674.29 C 191.14 671.16 199.08 671.33 204.24 675.77 C 207.41 678.47 208.42 682.69 209.20 686.60 C 207.24 686.64 205.28 686.79 203.33 686.67 C 201.57 683.82 201.19 679.64 197.64 678.31 C 194.16 677.09 189.74 677.25 187.05 680.07 C 183.69 683.41 183.05 688.46 182.97 692.98 C 183.14 697.61 183.60 702.65 186.56 706.44 C 189.32 709.87 194.56 709.99 198.29 708.24 C 201.42 706.76 201.47 702.78 203.45 700.38 C 205.36 700.25 207.28 700.37 209.19 700.45 C 208.36 704.78 206.91 709.48 203.00 712.01 C 196.09 716.46 185.37 715.59 180.52 708.48 C 176.41 702.84 176.84 695.53 177.07 688.92 C 177.38 683.18 180.06 677.14 185.28 674.29 Z" />
<path fill="#fefffe" opacity="1.00" d=" M 363.39 672.37 C 368.75 671.67 374.69 673.50 378.06 677.89 C 380.73 681.32 381.95 685.65 382.10 689.95 C 382.43 696.24 382.33 703.15 378.47 708.47 C 372.62 716.79 358.44 716.67 352.71 708.29 C 348.31 702.21 348.63 694.28 349.29 687.18 C 350.20 679.90 355.75 672.98 363.39 672.37 M 362.34 678.23 C 358.55 679.43 356.57 683.36 355.75 686.99 C 354.39 692.99 354.73 699.68 357.86 705.10 C 360.93 710.25 369.28 710.62 372.91 705.89 C 376.09 702.03 376.22 696.70 376.13 691.94 C 376.07 687.70 375.18 683.05 371.92 680.06 C 369.43 677.62 365.56 677.32 362.34 678.23 Z" />
<path fill="#fefffe" opacity="1.00" d=" M 123.91 672.65 C 125.76 672.76 127.65 672.82 129.46 673.28 C 134.79 686.78 139.84 700.39 145.05 713.94 C 142.84 713.94 140.62 713.95 138.41 713.94 C 137.23 710.49 135.98 707.07 134.80 703.63 C 129.36 703.88 123.74 702.98 118.41 704.07 C 116.95 707.27 115.94 710.66 114.76 713.97 C 112.58 713.96 110.39 713.95 108.20 713.94 C 113.32 700.13 118.70 686.42 123.91 672.65 M 120.53 698.17 C 124.60 698.26 128.66 698.24 132.72 698.20 C 130.73 692.58 128.72 686.97 126.58 681.40 C 124.51 686.97 122.46 692.54 120.53 698.17 Z" />
<path fill="#fefffe" opacity="1.00" d=" M 149.54 672.82 C 151.63 672.81 153.72 672.82 155.82 672.84 C 155.82 684.90 155.82 696.96 155.82 709.02 C 162.19 709.04 168.56 709.01 174.92 709.04 C 174.93 710.67 174.93 712.31 174.93 713.97 C 166.46 713.98 157.99 713.96 149.52 713.95 C 149.51 700.24 149.47 686.53 149.54 672.82 Z" />
<path fill="#fefffe" opacity="1.00" d=" M 214.79 672.79 C 216.82 672.80 218.85 672.82 220.89 672.87 C 220.98 682.26 220.75 691.66 220.97 701.05 C 220.95 704.69 223.45 708.38 227.15 709.06 C 230.00 709.44 233.29 709.52 235.61 707.53 C 238.26 705.58 238.55 702.01 238.71 698.99 C 238.79 690.26 238.67 681.53 238.74 672.80 C 240.80 672.80 242.86 672.82 244.93 672.86 C 244.84 682.58 245.06 692.32 244.84 702.04 C 244.74 706.85 241.60 711.31 237.17 713.16 C 231.33 715.71 223.89 715.27 218.89 711.12 C 215.98 708.65 214.79 704.76 214.83 701.04 C 214.71 691.63 214.81 682.21 214.79 672.79 Z" />
<path fill="#fefffe" opacity="1.00" d=" M 252.26 672.83 C 254.35 672.82 256.44 672.82 258.53 672.83 C 258.56 684.89 258.54 696.96 258.55 709.02 C 264.96 709.06 271.37 708.99 277.79 709.07 C 277.77 710.68 277.76 712.31 277.76 713.94 C 269.24 713.99 260.73 713.97 252.21 713.95 C 252.25 700.24 252.15 686.54 252.26 672.83 Z" />
<path fill="#fefffe" opacity="1.00" d=" M 295.14 672.79 C 296.97 672.79 298.81 672.83 300.64 672.88 C 305.80 686.56 311.11 700.18 316.26 713.86 C 314.10 713.93 311.94 713.98 309.79 714.05 C 308.50 710.56 307.25 707.06 305.94 703.59 C 300.54 703.61 295.13 703.61 289.73 703.60 C 288.46 707.05 287.24 710.53 285.94 713.98 C 283.81 713.95 281.68 713.94 279.55 713.90 C 284.51 700.11 289.90 686.47 295.14 672.79 M 297.80 681.60 C 295.67 687.09 293.70 692.64 291.72 698.19 C 295.82 698.24 299.92 698.23 304.03 698.21 C 301.92 692.68 300.10 687.05 297.80 681.60 Z" />
<path fill="#fefffe" opacity="1.00" d=" M 314.06 672.83 C 324.69 672.81 335.31 672.81 345.94 672.85 C 345.96 674.54 345.96 676.24 345.95 677.95 C 341.62 677.96 337.30 677.95 332.97 677.95 C 332.99 689.95 332.98 701.96 332.98 713.96 C 331.00 713.95 329.02 713.96 327.04 713.97 C 327.01 701.96 327.05 689.96 327.01 677.97 C 322.69 677.94 318.37 677.94 314.05 677.94 C 314.03 676.23 314.03 674.52 314.06 672.83 Z" />
<path fill="#fefffe" opacity="1.00" d=" M 389.47 672.88 C 395.32 672.86 401.19 672.57 407.03 673.13 C 411.13 673.61 415.59 675.78 417.05 679.92 C 418.48 683.80 418.37 688.48 416.07 692.02 C 414.69 694.01 412.56 695.26 410.69 696.73 C 413.94 702.41 417.10 708.14 420.16 713.92 C 417.82 713.94 415.49 713.95 413.16 713.96 C 410.23 708.72 407.65 703.29 404.58 698.13 C 401.69 697.53 398.72 697.84 395.79 697.78 C 395.76 703.17 395.82 708.56 395.77 713.96 C 393.66 713.94 391.56 713.93 389.45 713.92 C 389.47 700.24 389.46 686.56 389.47 672.88 M 395.80 677.92 C 395.78 682.77 395.78 687.61 395.80 692.47 C 399.93 692.33 404.39 693.06 408.25 691.24 C 412.83 688.86 412.71 681.12 407.92 679.07 C 404.11 677.40 399.83 678.06 395.80 677.92 Z" />
</g>
</svg>
