<?xml version="1.0" encoding="iso-8859-1"?>
<!-- Generator: Adobe Illustrator 19.0.0, SVG Export Plug-In . SVG Version: 6.00 Build 0)  -->
<svg version="1.1" id="Layer_1" xmlns="http://www.w3.org/2000/svg" xmlns:xlink="http://www.w3.org/1999/xlink" x="0px" y="0px"
	 viewBox="0 0 512 512" style="enable-background:new 0 0 512 512;" xml:space="preserve">
<g>
	<g>
		<path d="M256,0C114.844,0,0,114.839,0,256s114.844,256,256,256s256-114.839,256-256S397.156,0,256,0z M398.857,314.61
			c-23.103,15.4-49.576,23.103-76.06,23.103s-52.957-7.703-76.06-23.103c-34.943-23.299-80.126-23.299-115.068,0
			c-7.676,5.104-18.036,3.044-23.157-4.631c-5.121-7.675-3.044-18.042,4.631-23.157c46.206-30.8,105.915-30.8,152.12,0
			c34.943,23.299,80.127,23.299,115.068,0c7.665-5.11,18.036-3.049,23.157,4.631C408.609,299.129,406.533,309.496,398.857,314.61z
			 M398.857,214.23c-23.103,15.4-49.576,23.103-76.06,23.103s-52.957-7.703-76.06-23.103c-34.943-23.299-80.126-23.299-115.068,0
			c-7.676,5.093-18.036,3.049-23.157-4.631c-5.121-7.676-3.044-18.042,4.631-23.157c46.206-30.8,105.915-30.8,152.12,0
			c34.943,23.299,80.127,23.299,115.068,0c7.665-5.116,18.036-3.049,23.157,4.631C408.609,198.748,406.533,209.115,398.857,214.23z"
			/>
	</g>
</g>
<g>
</g>
<g>
</g>
<g>
</g>
<g>
</g>
<g>
</g>
<g>
</g>
<g>
</g>
<g>
</g>
<g>
</g>
<g>
</g>
<g>
</g>
<g>
</g>
<g>
</g>
<g>
</g>
<g>
</g>
</svg>
