<?xml version="1.0" ?><svg viewBox="0 0 113 234" xmlns="http://www.w3.org/2000/svg"><path d="     M 108.193173766136,94.8436220884323     C 108.193173766136,94.8436220884323 108.193173766136,232.740960359573 108.193173766136,232.740960359573     C 108.193173766136,232.740960359573 5.2551429271698,232.740960359573 5.2551429271698,232.740960359573     C 5.2551429271698,232.740960359573 5.2551429271698,94.8436220884323 5.2551429271698,94.8436220884323     C 5.2551429271698,94.8436220884323 1.39547175168991,94.8436220884323 1.39547175168991,94.8436220884323     C 1.39547175168991,94.8436220884323 1.39547175168991,86.7549583911896 1.39547175168991,86.7549583911896     C 1.39547175168991,86.7549583911896 9.09926223754883,86.7549583911896 9.09926223754883,86.7549583911896     C 9.09926223754883,86.7549583911896 48.6568219661713,18.2124052047729 48.6568219661713,18.2124052047729     C 48.6568219661713,18.2124052047729 48.6568219661713,8.23018884658813 48.6568219661713,8.23018884658813     C 48.6568219661713,8.23018884658813 47.3921502232552,8.23018884658813 47.3921502232552,8.23018884658813     C 47.3921502232552,8.23018884658813 47.3921502232552,1.57556390762329 47.3921502232552,1.57556390762329     C 47.3921502232552,1.57556390762329 63.9003506302834,1.57556390762329 63.9003506302834,1.57556390762329     C 63.9003506302834,1.57556390762329 63.9003506302834,8.23018884658813 63.9003506302834,8.23018884658813     C 63.9003506302834,8.23018884658813 62.6355509161949,8.23018884658813 62.6355509161949,8.23018884658813     C 62.6355509161949,8.23018884658813 62.6355509161949,18.2121541500092 62.6355509161949,18.2121541500092     C 62.6355509161949,18.2121541500092 62.6355913281441,18.2121541500092 62.6355913281441,18.2121541500092     C 62.6355913281441,18.2121541500092 103.903916835785,86.7549583911896 103.903916835785,86.7549583911896     C 103.903916835785,86.7549583911896 111.894025981426,86.7549583911896 111.894025981426,86.7549583911896     C 111.894025981426,86.7549583911896 111.894025981426,94.8436220884323 111.894025981426,94.8436220884323     C 111.894025981426,94.8436220884323 108.193173766136,94.8436220884323 108.193173766136,94.8436220884323     Z     M 66.3286440372467,196.281239390373     C 66.3286440372467,196.281239390373 66.3286440372467,185.011948943138 66.3286440372467,185.011948943138     C 66.3286440372467,181.58367061615 63.3726716041565,178.701269030571 59.3636445999146,177.864154815674     C 59.3636445999146,177.864154815674 59.3636445999146,196.281239390373 59.3636445999146,196.281239390373     C 59.3636445999146,196.281239390373 66.3286440372467,196.281239390373 66.3286440372467,196.281239390373     Z     M 55.4044589996338,196.281239390373     C 55.4044589996338,196.281239390373 55.4044589996338,177.721806764603 55.4044589996338,177.721806764603     C 50.9743327498436,178.308089375496 47.5977729558945,181.347860455513 47.5977729558945,185.011948943138     C 47.5977729558945,185.011948943138 47.5977729558945,196.281239390373 47.5977729558945,196.281239390373     C 47.5977729558945,196.281239390373 55.4044589996338,196.281239390373 55.4044589996338,196.281239390373     Z     M 9.59368896484375,228.454562902451     C 9.59368896484375,228.454562902451 43.5833442211151,228.454562902451 43.5833442211151,228.454562902451     C 43.5833442211151,228.454562902451 43.5833442211151,182.787282943726 43.5833442211151,182.787282943726     C 43.5833442211151,176.953537344933 49.5734660029411,172.224418759346 56.9625214934349,172.224418759346     C 64.3516241312027,172.224418759346 70.3417391777039,176.953537344933 70.3417391777039,182.787282943726     C 70.3417391777039,182.787282943726 70.3417391777039,228.454562902451 70.3417391777039,228.454562902451     C 70.3417391777039,228.454562902451 103.854627728462,228.454562902451 103.854627728462,228.454562902451     C 103.854627728462,228.454562902451 103.854627728462,95.2344446182251 103.854627728462,95.2344446182251     C 103.854627728462,95.2344446182251 9.59368896484375,95.2344446182251 9.59368896484375,95.2344446182251     C 9.59368896484375,95.2344446182251 9.59368896484375,228.454562902451 9.59368896484375,228.454562902451     Z     M 68.1822862625122,75.8313703536987     C 68.1822862625122,75.8313703536987 68.1822862625122,51.4047321081162 68.1822862625122,51.4047321081162     C 68.1822862625122,51.4047321081162 44.4273881912231,51.4047321081162 44.4273881912231,51.4047321081162     C 44.4273881912231,51.4047321081162 44.4273881912231,73.0084547996521 44.4273881912231,73.0084547996521     C 44.4273881912231,73.0084547996521 44.4273881912231,75.8313703536987 44.4273881912231,75.8313703536987     C 44.4273881912231,75.8313703536987 44.4273881912231,86.648385643959 44.4273881912231,86.648385643959     C 44.4273881912231,86.648385643959 68.1822862625122,86.648385643959 68.1822862625122,86.648385643959     C 68.1822862625122,86.648385643959 68.1822862625122,75.8313703536987 68.1822862625122,75.8313703536987     Z     M 54.6542717814446,62.113919377327     C 54.6542717814446,62.113919377327 46.8951101899147,62.113919377327 46.8951101899147,62.113919377327     C 46.8951101899147,62.113919377327 46.8951101899147,54.3510410785675 46.8951101899147,54.3510410785675     C 46.8951101899147,54.3510410785675 54.6542717814446,54.3510410785675 54.6542717814446,54.3510410785675     C 54.6542717814446,54.3510410785675 54.6542717814446,62.113919377327 54.6542717814446,62.113919377327     Z     M 54.6542717814446,73.0084547996521     C 54.6542717814446,73.0084547996521 46.8951101899147,73.0084547996521 46.8951101899147,73.0084547996521     C 46.8951101899147,73.0084547996521 46.8951101899147,65.3750231266022 46.8951101899147,65.3750231266022     C 46.8951101899147,65.3750231266022 54.6542717814446,65.3750231266022 54.6542717814446,65.3750231266022     C 54.6542717814446,65.3750231266022 54.6542717814446,73.0084547996521 54.6542717814446,73.0084547996521     Z     M 54.6542717814446,83.7175862789154     C 54.6542717814446,83.7175862789154 46.8951101899147,83.7175862789154 46.8951101899147,83.7175862789154     C 46.8951101899147,83.7175862789154 46.8951101899147,75.9546800851822 46.8951101899147,75.9546800851822     C 46.8951101899147,75.9546800851822 54.6542717814446,75.9546800851822 54.6542717814446,75.9546800851822     C 54.6542717814446,75.9546800851822 54.6542717814446,83.7175862789154 54.6542717814446,83.7175862789154     Z     M 65.6730342507362,62.113919377327     C 65.6730342507362,62.113919377327 57.9138793945313,62.113919377327 57.9138793945313,62.113919377327     C 57.9138793945313,62.113919377327 57.9138793945313,54.3510410785675 57.9138793945313,54.3510410785675     C 57.9138793945313,54.3510410785675 65.6730342507362,54.3510410785675 65.6730342507362,54.3510410785675     C 65.6730342507362,54.3510410785675 65.6730342507362,62.113919377327 65.6730342507362,62.113919377327     Z     M 65.6730342507362,73.0084547996521     C 65.6730342507362,73.0084547996521 57.9138793945313,73.0084547996521 57.9138793945313,73.0084547996521     C 57.9138793945313,73.0084547996521 57.9138793945313,65.3750231266022 57.9138793945313,65.3750231266022     C 57.9138793945313,65.3750231266022 65.6730342507362,65.3750231266022 65.6730342507362,65.3750231266022     C 65.6730342507362,65.3750231266022 65.6730342507362,73.0084547996521 65.6730342507362,73.0084547996521     Z     M 65.6730342507362,83.7175862789154     C 65.6730342507362,83.7175862789154 57.9138793945313,83.7175862789154 57.9138793945313,83.7175862789154     C 57.9138793945313,83.7175862789154 57.9138793945313,75.9546800851822 57.9138793945313,75.9546800851822     C 57.9138793945313,75.9546800851822 65.6730342507362,75.9546800851822 65.6730342507362,75.9546800851822     C 65.6730342507362,75.9546800851822 65.6730342507362,83.7175862789154 65.6730342507362,83.7175862789154     Z     M 74.9541300535202,140.417746782303     C 74.9541300535202,140.417746782303 98.7090685367584,140.417746782303 98.7090685367584,140.417746782303     C 98.7090685367584,140.417746782303 98.7090685367584,164.84423160553 98.7090685367584,164.84423160553     C 98.7090685367584,164.84423160553 74.9541300535202,164.84423160553 74.9541300535202,164.84423160553     C 74.9541300535202,164.84423160553 74.9541300535202,140.417746782303 74.9541300535202,140.417746782303     Z     M 88.4405336976051,162.150902152061     C 88.4405336976051,162.150902152061 96.199695289135,162.150902152061 96.199695289135,162.150902152061     C 96.199695289135,162.150902152061 96.199695289135,154.387940168381 96.199695289135,154.387940168381     C 96.199695289135,154.387940168381 88.4405336976051,154.387940168381 88.4405336976051,154.387940168381     C 88.4405336976051,154.387940168381 88.4405336976051,162.150902152061 88.4405336976051,162.150902152061     Z     M 88.4405336976051,151.126822471619     C 88.4405336976051,151.126822471619 96.199695289135,151.126822471619 96.199695289135,151.126822471619     C 96.199695289135,151.126822471619 96.199695289135,143.363958120346 96.199695289135,143.363958120346     C 96.199695289135,143.363958120346 88.4405336976051,143.363958120346 88.4405336976051,143.363958120346     C 88.4405336976051,143.363958120346 88.4405336976051,151.126822471619 88.4405336976051,151.126822471619     Z     M 77.4218924641609,162.150902152061     C 77.4218924641609,162.150902152061 85.1810540556908,162.150902152061 85.1810540556908,162.150902152061     C 85.1810540556908,162.150902152061 85.1810540556908,154.387940168381 85.1810540556908,154.387940168381     C 85.1810540556908,154.387940168381 77.4218924641609,154.387940168381 77.4218924641609,154.387940168381     C 77.4218924641609,154.387940168381 77.4218924641609,162.150902152061 77.4218924641609,162.150902152061     Z     M 77.4218924641609,151.126822471619     C 77.4218924641609,151.126822471619 85.1810540556908,151.126822471619 85.1810540556908,151.126822471619     C 85.1810540556908,151.126822471619 85.1810540556908,143.363958120346 85.1810540556908,143.363958120346     C 85.1810540556908,143.363958120346 77.4218924641609,143.363958120346 77.4218924641609,143.363958120346     C 77.4218924641609,143.363958120346 77.4218924641609,151.126822471619 77.4218924641609,151.126822471619     Z     M 74.9541300535202,108.01222550869     C 74.9541300535202,108.01222550869 98.7090685367584,108.01222550869 98.7090685367584,108.01222550869     C 98.7090685367584,108.01222550869 98.7090685367584,132.438766121864 98.7090685367584,132.438766121864     C 98.7090685367584,132.438766121864 74.9541300535202,132.438766121864 74.9541300535202,132.438766121864     C 74.9541300535202,132.438766121864 74.9541300535202,108.01222550869 74.9541300535202,108.01222550869     Z     M 88.4405336976051,129.745339035988     C 88.4405336976051,129.745339035988 96.199695289135,129.745339035988 96.199695289135,129.745339035988     C 96.199695289135,129.745339035988 96.199695289135,121.982418894768 96.199695289135,121.982418894768     C 96.199695289135,121.982418894768 88.4405336976051,121.982418894768 88.4405336976051,121.982418894768     C 88.4405336976051,121.982418894768 88.4405336976051,129.745339035988 88.4405336976051,129.745339035988     Z     M 88.4405336976051,118.721315145493     C 88.4405336976051,118.721315145493 96.199695289135,118.721315145493 96.199695289135,118.721315145493     C 96.199695289135,118.721315145493 96.199695289135,110.95845079422 96.199695289135,110.95845079422     C 96.199695289135,110.95845079422 88.4405336976051,110.95845079422 88.4405336976051,110.95845079422     C 88.4405336976051,110.95845079422 88.4405336976051,118.721315145493 88.4405336976051,118.721315145493     Z     M 77.4218924641609,129.745339035988     C 77.4218924641609,129.745339035988 85.1810540556908,129.745339035988 85.1810540556908,129.745339035988     C 85.1810540556908,129.745339035988 85.1810540556908,121.982418894768 85.1810540556908,121.982418894768     C 85.1810540556908,121.982418894768 77.4218924641609,121.982418894768 77.4218924641609,121.982418894768     C 77.4218924641609,121.982418894768 77.4218924641609,129.745339035988 77.4218924641609,129.745339035988     Z     M 77.4218924641609,118.721315145493     C 77.4218924641609,118.721315145493 85.1810540556908,118.721315145493 85.1810540556908,118.721315145493     C 85.1810540556908,118.721315145493 85.1810540556908,110.95845079422 85.1810540556908,110.95845079422     C 85.1810540556908,110.95845079422 77.4218924641609,110.95845079422 77.4218924641609,110.95845079422     C 77.4218924641609,110.95845079422 77.4218924641609,118.721315145493 77.4218924641609,118.721315145493     Z     M 98.643116235733,197.4498295784     C 98.643116235733,197.4498295784 98.643116235733,208.266830921173 98.643116235733,208.266830921173     C 98.643116235733,208.266830921173 74.888218164444,208.266830921173 74.888218164444,208.266830921173     C 74.888218164444,208.266830921173 74.888218164444,197.4498295784 74.888218164444,197.4498295784     C 74.888218164444,197.4498295784 74.888218164444,194.626914024353 74.888218164444,194.626914024353     C 74.888218164444,194.626914024353 74.888218164444,173.023233175278 74.888218164444,173.023233175278     C 74.888218164444,173.023233175278 98.643116235733,173.023233175278 98.643116235733,173.023233175278     C 98.643116235733,173.023233175278 98.643116235733,197.4498295784 98.643116235733,197.4498295784     Z     M 85.1151017546654,175.969500303268     C 85.1151017546654,175.969500303268 77.3559401631355,175.969500303268 77.3559401631355,175.969500303268     C 77.3559401631355,175.969500303268 77.3559401631355,183.732420444489 77.3559401631355,183.732420444489     C 77.3559401631355,183.732420444489 85.1151017546654,183.732420444489 85.1151017546654,183.732420444489     C 85.1151017546654,183.732420444489 85.1151017546654,175.969500303268 85.1151017546654,175.969500303268     Z     M 85.1151017546654,186.993538141251     C 85.1151017546654,186.993538141251 77.3559401631355,186.993538141251 77.3559401631355,186.993538141251     C 77.3559401631355,186.993538141251 77.3559401631355,194.626914024353 77.3559401631355,194.626914024353     C 77.3559401631355,194.626914024353 85.1151017546654,194.626914024353 85.1151017546654,194.626914024353     C 85.1151017546654,194.626914024353 85.1151017546654,186.993538141251 85.1151017546654,186.993538141251     Z     M 85.1151017546654,197.573125362396     C 85.1151017546654,197.573125362396 77.3559401631355,197.573125362396 77.3559401631355,197.573125362396     C 77.3559401631355,197.573125362396 77.3559401631355,205.336101293564 77.3559401631355,205.336101293564     C 77.3559401631355,205.336101293564 85.1151017546654,205.336101293564 85.1151017546654,205.336101293564     C 85.1151017546654,205.336101293564 85.1151017546654,197.573125362396 85.1151017546654,197.573125362396     Z     M 96.1338709592819,175.969500303268     C 96.1338709592819,175.969500303268 88.3747093677521,175.969500303268 88.3747093677521,175.969500303268     C 88.3747093677521,175.969500303268 88.3747093677521,183.732420444489 88.3747093677521,183.732420444489     C 88.3747093677521,183.732420444489 96.1338709592819,183.732420444489 96.1338709592819,183.732420444489     C 96.1338709592819,183.732420444489 96.1338709592819,175.969500303268 96.1338709592819,175.969500303268     Z     M 96.1338709592819,186.993538141251     C 96.1338709592819,186.993538141251 88.3747093677521,186.993538141251 88.3747093677521,186.993538141251     C 88.3747093677521,186.993538141251 88.3747093677521,194.626914024353 88.3747093677521,194.626914024353     C 88.3747093677521,194.626914024353 96.1338709592819,194.626914024353 96.1338709592819,194.626914024353     C 96.1338709592819,194.626914024353 96.1338709592819,186.993538141251 96.1338709592819,186.993538141251     Z     M 96.1338709592819,197.573125362396     C 96.1338709592819,197.573125362396 88.3747093677521,197.573125362396 88.3747093677521,197.573125362396     C 88.3747093677521,197.573125362396 88.3747093677521,205.336101293564 88.3747093677521,205.336101293564     C 88.3747093677521,205.336101293564 96.1338709592819,205.336101293564 96.1338709592819,205.336101293564     C 96.1338709592819,205.336101293564 96.1338709592819,197.573125362396 96.1338709592819,197.573125362396     Z     M 44.4237915277481,141.350275754929     C 44.4237915277481,141.350275754929 68.1786828637123,141.350275754929 68.1786828637123,141.350275754929     C 68.1786828637123,141.350275754929 68.1786828637123,165.776914000511 68.1786828637123,165.776914000511     C 68.1786828637123,165.776914000511 44.4237915277481,165.776914000511 44.4237915277481,165.776914000511     C 44.4237915277481,165.776914000511 44.4237915277481,141.350275754929 44.4237915277481,141.350275754929     Z     M 57.9101884365082,163.083486914635     C 57.9101884365082,163.083486914635 65.6693096160889,163.083486914635 65.6693096160889,163.083486914635     C 65.6693096160889,163.083486914635 65.6693096160889,155.320510983467 65.6693096160889,155.320510983467     C 65.6693096160889,155.320510983467 57.9101884365082,155.320510983467 57.9101884365082,155.320510983467     C 57.9101884365082,155.320510983467 57.9101884365082,163.083486914635 57.9101884365082,163.083486914635     Z     M 57.9101884365082,152.0595048666     C 57.9101884365082,152.0595048666 65.6693096160889,152.0595048666 65.6693096160889,152.0595048666     C 65.6693096160889,152.0595048666 65.6693096160889,144.296542882919 65.6693096160889,144.296542882919     C 65.6693096160889,144.296542882919 57.9101884365082,144.296542882919 57.9101884365082,144.296542882919     C 57.9101884365082,144.296542882919 57.9101884365082,152.0595048666 57.9101884365082,152.0595048666     Z     M 46.8915067911148,163.083486914635     C 46.8915067911148,163.083486914635 54.6506683826447,163.083486914635 54.6506683826447,163.083486914635     C 54.6506683826447,163.083486914635 54.6506683826447,155.320510983467 54.6506683826447,155.320510983467     C 54.6506683826447,155.320510983467 46.8915067911148,155.320510983467 46.8915067911148,155.320510983467     C 46.8915067911148,155.320510983467 46.8915067911148,163.083486914635 46.8915067911148,163.083486914635     Z     M 46.8915067911148,152.0595048666     C 46.8915067911148,152.0595048666 54.6506683826447,152.0595048666 54.6506683826447,152.0595048666     C 54.6506683826447,152.0595048666 54.6506683826447,144.296542882919 54.6506683826447,144.296542882919     C 54.6506683826447,144.296542882919 46.8915067911148,144.296542882919 46.8915067911148,144.296542882919     C 46.8915067911148,144.296542882919 46.8915067911148,152.0595048666 46.8915067911148,152.0595048666     Z     M 44.4237915277481,108.01222550869     C 44.4237915277481,108.01222550869 68.1786828637123,108.01222550869 68.1786828637123,108.01222550869     C 68.1786828637123,108.01222550869 68.1786828637123,132.438766121864 68.1786828637123,132.438766121864     C 68.1786828637123,132.438766121864 44.4237915277481,132.438766121864 44.4237915277481,132.438766121864     C 44.4237915277481,132.438766121864 44.4237915277481,108.01222550869 44.4237915277481,108.01222550869     Z     M 57.9101884365082,129.745339035988     C 57.9101884365082,129.745339035988 65.6693096160889,129.745339035988 65.6693096160889,129.745339035988     C 65.6693096160889,129.745339035988 65.6693096160889,121.982418894768 65.6693096160889,121.982418894768     C 65.6693096160889,121.982418894768 57.9101884365082,121.982418894768 57.9101884365082,121.982418894768     C 57.9101884365082,121.982418894768 57.9101884365082,129.745339035988 57.9101884365082,129.745339035988     Z     M 57.9101884365082,118.721315145493     C 57.9101884365082,118.721315145493 65.6693096160889,118.721315145493 65.6693096160889,118.721315145493     C 65.6693096160889,118.721315145493 65.6693096160889,110.95845079422 65.6693096160889,110.95845079422     C 65.6693096160889,110.95845079422 57.9101884365082,110.95845079422 57.9101884365082,110.95845079422     C 57.9101884365082,110.95845079422 57.9101884365082,118.721315145493 57.9101884365082,118.721315145493     Z     M 46.8915067911148,129.745339035988     C 46.8915067911148,129.745339035988 54.6506683826447,129.745339035988 54.6506683826447,129.745339035988     C 54.6506683826447,129.745339035988 54.6506683826447,121.982418894768 54.6506683826447,121.982418894768     C 54.6506683826447,121.982418894768 46.8915067911148,121.982418894768 46.8915067911148,121.982418894768     C 46.8915067911148,121.982418894768 46.8915067911148,129.745339035988 46.8915067911148,129.745339035988     Z     M 46.8915067911148,118.721315145493     C 46.8915067911148,118.721315145493 54.6506683826447,118.721315145493 54.6506683826447,118.721315145493     C 54.6506683826447,118.721315145493 54.6506683826447,110.95845079422 54.6506683826447,110.95845079422     C 54.6506683826447,110.95845079422 46.8915067911148,110.95845079422 46.8915067911148,110.95845079422     C 46.8915067911148,110.95845079422 46.8915067911148,118.721315145493 46.8915067911148,118.721315145493     Z     M 15.6327900290489,140.417746782303     C 15.6327900290489,140.417746782303 39.3876813650131,140.417746782303 39.3876813650131,140.417746782303     C 39.3876813650131,140.417746782303 39.3876813650131,164.84423160553 39.3876813650131,164.84423160553     C 39.3876813650131,164.84423160553 15.6327900290489,164.84423160553 15.6327900290489,164.84423160553     C 15.6327900290489,164.84423160553 15.6327900290489,140.417746782303 15.6327900290489,140.417746782303     Z     M 29.119234085083,162.150902152061     C 29.119234085083,162.150902152061 36.8783485293388,162.150902152061 36.8783485293388,162.150902152061     C 36.8783485293388,162.150902152061 36.8783485293388,154.387940168381 36.8783485293388,154.387940168381     C 36.8783485293388,154.387940168381 29.119234085083,154.387940168381 29.119234085083,154.387940168381     C 29.119234085083,154.387940168381 29.119234085083,162.150902152061 29.119234085083,162.150902152061     Z     M 29.119234085083,151.126822471619     C 29.119234085083,151.126822471619 36.8783485293388,151.126822471619 36.8783485293388,151.126822471619     C 36.8783485293388,151.126822471619 36.8783485293388,143.363958120346 36.8783485293388,143.363958120346     C 36.8783485293388,143.363958120346 29.119234085083,143.363958120346 29.119234085083,143.363958120346     C 29.119234085083,143.363958120346 29.119234085083,151.126822471619 29.119234085083,151.126822471619     Z     M 18.1004648804665,162.150902152061     C 18.1004648804665,162.150902152061 25.8597140312195,162.150902152061 25.8597140312195,162.150902152061     C 25.8597140312195,162.150902152061 25.8597140312195,154.387940168381 25.8597140312195,154.387940168381     C 25.8597140312195,154.387940168381 18.1004648804665,154.387940168381 18.1004648804665,154.387940168381     C 18.1004648804665,154.387940168381 18.1004648804665,162.150902152061 18.1004648804665,162.150902152061     Z     M 18.1004648804665,151.126822471619     C 18.1004648804665,151.126822471619 25.8597140312195,151.126822471619 25.8597140312195,151.126822471619     C 25.8597140312195,151.126822471619 25.8597140312195,143.363958120346 25.8597140312195,143.363958120346     C 25.8597140312195,143.363958120346 18.1004648804665,143.363958120346 18.1004648804665,143.363958120346     C 18.1004648804665,143.363958120346 18.1004648804665,151.126822471619 18.1004648804665,151.126822471619     Z     M 15.6327900290489,108.01222550869     C 15.6327900290489,108.01222550869 39.3876813650131,108.01222550869 39.3876813650131,108.01222550869     C 39.3876813650131,108.01222550869 39.3876813650131,132.438766121864 39.3876813650131,132.438766121864     C 39.3876813650131,132.438766121864 15.6327900290489,132.438766121864 15.6327900290489,132.438766121864     C 15.6327900290489,132.438766121864 15.6327900290489,108.01222550869 15.6327900290489,108.01222550869     Z     M 29.119234085083,129.745339035988     C 29.119234085083,129.745339035988 36.8783485293388,129.745339035988 36.8783485293388,129.745339035988     C 36.8783485293388,129.745339035988 36.8783485293388,121.982418894768 36.8783485293388,121.982418894768     C 36.8783485293388,121.982418894768 29.119234085083,121.982418894768 29.119234085083,121.982418894768     C 29.119234085083,121.982418894768 29.119234085083,129.745339035988 29.119234085083,129.745339035988     Z     M 29.119234085083,118.721315145493     C 29.119234085083,118.721315145493 36.8783485293388,118.721315145493 36.8783485293388,118.721315145493     C 36.8783485293388,118.721315145493 36.8783485293388,110.95845079422 36.8783485293388,110.95845079422     C 36.8783485293388,110.95845079422 29.119234085083,110.95845079422 29.119234085083,110.95845079422     C 29.119234085083,110.95845079422 29.119234085083,118.721315145493 29.119234085083,118.721315145493     Z     M 18.1004648804665,129.745339035988     C 18.1004648804665,129.745339035988 25.8597140312195,129.745339035988 25.8597140312195,129.745339035988     C 25.8597140312195,129.745339035988 25.8597140312195,121.982418894768 25.8597140312195,121.982418894768     C 25.8597140312195,121.982418894768 18.1004648804665,121.982418894768 18.1004648804665,121.982418894768     C 18.1004648804665,121.982418894768 18.1004648804665,129.745339035988 18.1004648804665,129.745339035988     Z     M 18.1004648804665,118.721315145493     C 18.1004648804665,118.721315145493 25.8597140312195,118.721315145493 25.8597140312195,118.721315145493     C 25.8597140312195,118.721315145493 25.8597140312195,110.95845079422 25.8597140312195,110.95845079422     C 25.8597140312195,110.95845079422 18.1004648804665,110.95845079422 18.1004648804665,110.95845079422     C 18.1004648804665,110.95845079422 18.1004648804665,118.721315145493 18.1004648804665,118.721315145493     Z     M 39.3276426792145,197.4498295784     C 39.3276426792145,197.4498295784 39.3276426792145,208.266830921173 39.3276426792145,208.266830921173     C 39.3276426792145,208.266830921173 15.5727513432503,208.266830921173 15.5727513432503,208.266830921173     C 15.5727513432503,208.266830921173 15.5727513432503,197.4498295784 15.5727513432503,197.4498295784     C 15.5727513432503,197.4498295784 15.5727513432503,194.626914024353 15.5727513432503,194.626914024353     C 15.5727513432503,194.626914024353 15.5727513432503,173.023233175278 15.5727513432503,173.023233175278     C 15.5727513432503,173.023233175278 39.3276426792145,173.023233175278 39.3276426792145,173.023233175278     C 39.3276426792145,173.023233175278 39.3276426792145,197.4498295784 39.3276426792145,197.4498295784     Z     M 25.7995877861977,175.969500303268     C 25.7995877861977,175.969500303268 18.040513753891,175.969500303268 18.040513753891,175.969500303268     C 18.040513753891,175.969500303268 18.040513753891,183.732420444489 18.040513753891,183.732420444489     C 18.040513753891,183.732420444489 25.7995877861977,183.732420444489 25.7995877861977,183.732420444489     C 25.7995877861977,183.732420444489 25.7995877861977,175.969500303268 25.7995877861977,175.969500303268     Z     M 25.7995877861977,186.993538141251     C 25.7995877861977,186.993538141251 18.040513753891,186.993538141251 18.040513753891,186.993538141251     C 18.040513753891,186.993538141251 18.040513753891,194.626914024353 18.040513753891,194.626914024353     C 18.040513753891,194.626914024353 25.7995877861977,194.626914024353 25.7995877861977,194.626914024353     C 25.7995877861977,194.626914024353 25.7995877861977,186.993538141251 25.7995877861977,186.993538141251     Z     M 25.7995877861977,197.573125362396     C 25.7995877861977,197.573125362396 18.040513753891,197.573125362396 18.040513753891,197.573125362396     C 18.040513753891,197.573125362396 18.040513753891,205.336101293564 18.040513753891,205.336101293564     C 18.040513753891,205.336101293564 25.7995877861977,205.336101293564 25.7995877861977,205.336101293564     C 25.7995877861977,205.336101293564 25.7995877861977,197.573125362396 25.7995877861977,197.573125362396     Z     M 36.8183098435402,175.969500303268     C 36.8183098435402,175.969500303268 29.0591953992844,175.969500303268 29.0591953992844,175.969500303268     C 29.0591953992844,175.969500303268 29.0591953992844,183.732420444489 29.0591953992844,183.732420444489     C 29.0591953992844,183.732420444489 36.8183098435402,183.732420444489 36.8183098435402,183.732420444489     C 36.8183098435402,183.732420444489 36.8183098435402,175.969500303268 36.8183098435402,175.969500303268     Z     M 36.8183098435402,186.993538141251     C 36.8183098435402,186.993538141251 29.0591953992844,186.993538141251 29.0591953992844,186.993538141251     C 29.0591953992844,186.993538141251 29.0591953992844,194.626914024353 29.0591953992844,194.626914024353     C 29.0591953992844,194.626914024353 36.8183098435402,194.626914024353 36.8183098435402,194.626914024353     C 36.8183098435402,194.626914024353 36.8183098435402,186.993538141251 36.8183098435402,186.993538141251     Z     M 36.8183098435402,197.573125362396     C 36.8183098435402,197.573125362396 29.0591953992844,197.573125362396 29.0591953992844,197.573125362396     C 29.0591953992844,197.573125362396 29.0591953992844,205.336101293564 29.0591953992844,205.336101293564     C 29.0591953992844,205.336101293564 36.8183098435402,205.336101293564 36.8183098435402,205.336101293564     C 36.8183098435402,205.336101293564 36.8183098435402,197.573125362396 36.8183098435402,197.573125362396     Z " fill-rule="nonzero" id="house-shape-PhotoshopSupply.com"/></svg>